<svg width="223" height="61" viewBox="0 0 223 61" fill="none" xmlns="http://www.w3.org/2000/svg">
<mask id="mask0_3178_28987" style="mask-type:luminance" maskUnits="userSpaceOnUse" x="0" y="0" width="223" height="61">
<path d="M223 0.757629H0V60.8355H223V0.757629Z" fill="white"/>
</mask>
<g mask="url(#mask0_3178_28987)">
<path d="M184.396 14.3579C171.616 14.3579 161.265 24.7646 161.265 37.5995C161.265 50.4344 171.622 60.841 184.396 60.841C197.17 60.841 207.528 50.4344 207.528 37.5995C207.528 24.7646 197.17 14.3579 184.396 14.3579ZM184.396 51.5907C176.891 51.5907 170.812 45.3246 170.812 37.594C170.812 29.8633 176.891 23.5973 184.396 23.5973C191.901 23.5973 197.98 29.8633 197.98 37.594C197.98 45.3246 191.901 51.5907 184.396 51.5907Z" fill="#1E1F50"/>
<path d="M155.588 15.0462H146.057V60.1472H155.588V15.0462Z" fill="#1E1F50"/>
<path d="M22.735 23.5973C28.0925 23.5973 32.3322 26.4825 34.1823 31.4436H44.2861C41.5991 20.8992 33.6537 14.3579 22.9332 14.3579C9.89459 14.3579 0 24.7646 0 37.5995C0 50.4344 9.89459 60.841 22.9332 60.841C33.6592 60.841 41.5936 54.2997 44.2861 43.7554H34.1823C32.3322 48.7109 28.0925 51.6017 22.735 51.6017C14.9658 51.6017 9.5422 45.3356 9.5422 37.605C9.5422 29.8743 14.9658 23.6083 22.735 23.6083V23.5973Z" fill="#1E1F50"/>
<path d="M123.85 21.7857V15.0407H114.347V60.1472H123.85V40.5618C123.85 28.9107 130.215 22.4244 140.589 24.6104V15.0407C134.108 12.9538 126.813 16.7035 123.85 21.7802V21.7857Z" fill="#1E1F50"/>
<path d="M59.2739 48.7439V0.757629H49.7427V49.669C49.7427 54.7511 51.9231 60.1527 59.6758 60.1527H63.453V52.5156H62.049C60.2099 52.3174 59.2739 51.464 59.2739 48.7494V48.7439Z" fill="#1E1F50"/>
<path d="M104.678 48.755H104.689V30.8654C104.689 22.1822 99.8378 14.3634 86.4798 14.3634C75.8805 14.3634 68.9427 21.9564 68.0507 29.4118H77.4938C78.4023 25.6015 81.4968 22.463 86.3752 22.463C92.0741 22.463 95.1631 25.4694 95.1631 29.4008C95.1631 30.9205 94.4638 32.8256 91.2812 32.8256L83.7102 32.9853C73.0558 32.9853 66.542 37.6765 66.542 46.5965C66.542 54.8117 72.5162 60.841 82.1245 60.841C88.0161 60.841 92.7073 58.4734 96.0991 54.8943C97.3655 57.8787 100.047 60.1472 105.08 60.1472H108.262V52.5102H107.447C105.614 52.3119 104.672 51.4585 104.672 48.7494L104.678 48.755ZM83.4955 52.6919C78.606 52.6919 76.2824 49.8066 76.2824 46.8553C76.2824 41.8612 80.368 40.4186 84.9436 40.4186L90.637 40.3195C92.3329 40.3195 93.8526 40.0992 95.1576 39.5156V40.7214C95.1576 49.223 89.2825 52.6919 83.49 52.6919H83.4955Z" fill="#1E1F50"/>
<path d="M142.164 0.779694C142.109 1.18164 142.076 1.5891 142.076 2.00757C142.076 6.85851 145.991 10.7954 150.819 10.7954C155.648 10.7954 159.563 6.86401 159.563 2.00757C159.563 1.5891 159.53 1.18164 159.475 0.779694H142.153H142.164Z" fill="#6BC7B8"/>
<path d="M222.912 60.1857C222.967 59.7893 223 59.3763 223 58.9579C223 54.1069 219.085 50.17 214.256 50.17C209.427 50.17 205.512 54.1014 205.512 58.9579C205.512 59.3763 205.545 59.7838 205.6 60.1857H222.923H222.912Z" fill="#6BC7B8"/>
</g>
</svg>
