<svg width="247" height="66" viewBox="0 0 247 66" fill="none" xmlns="http://www.w3.org/2000/svg">
<mask id="mask0_3178_29000" style="mask-type:luminance" maskUnits="userSpaceOnUse" x="0" y="0" width="247" height="66">
<path d="M246.537 0H0V65.8561H246.537V0Z" fill="white"/>
</mask>
<g mask="url(#mask0_3178_29000)">
<path fill-rule="evenodd" clip-rule="evenodd" d="M22.587 39.9528C22.587 26.2634 33.8928 15.0563 47.977 15.0563C55.0042 15.0563 61.3702 17.8693 65.9498 22.3699C68.3333 24.7189 68.3137 28.5039 65.9054 30.8233C63.4972 33.1427 59.6035 33.123 57.215 30.7789C54.8364 28.4348 51.5695 27.0086 47.972 27.0086C40.8016 27.0086 34.8748 32.7479 34.8748 39.9578C34.8748 47.1676 40.8016 52.9069 47.972 52.9069C51.5745 52.9069 54.8315 51.4808 57.22 49.1367C57.2989 49.0578 57.3828 48.9738 57.4717 48.9047L72.5822 35.6644C72.6859 35.5608 72.7995 35.4621 72.9179 35.3684L87.8952 22.2465C92.4699 17.815 98.7718 15.0613 105.74 15.0613C119.824 15.0613 131.135 26.2684 131.135 39.9578C131.135 53.6471 119.824 64.8593 105.74 64.8593C98.7767 64.8593 92.4649 62.1006 87.9002 57.674L76.8559 47.9967L65.8165 57.6691C61.2468 62.0957 54.9401 64.8543 47.972 64.8543C33.8878 64.8543 22.582 53.6471 22.582 39.9528H22.587ZM86.0397 39.9578L96.2451 48.9047C96.334 48.9787 96.4179 49.0627 96.5018 49.1416C98.8804 51.4808 102.142 52.9069 105.74 52.9069C112.91 52.9069 118.842 47.1726 118.842 39.9578C118.842 32.743 112.91 27.0136 105.74 27.0136C102.137 27.0136 98.8804 28.4348 96.4968 30.7789C96.4179 30.8578 96.334 30.9417 96.2451 31.0157L86.0397 39.9578Z" fill="#4068B2"/>
<path fill-rule="evenodd" clip-rule="evenodd" d="M162.881 15.0563C177.02 15.0563 188.478 26.2042 188.478 39.9578V58.8831C188.478 62.1846 185.725 64.8593 182.334 64.8593C178.944 64.8593 176.186 62.1846 176.186 58.8831V52.4085H149.562V58.8831C149.562 62.1846 146.808 64.8593 143.418 64.8593C140.028 64.8593 137.269 62.1846 137.269 58.8831V39.9578C137.269 26.2042 148.733 15.0563 162.871 15.0563H162.881ZM149.567 40.4562H176.191V39.9578C176.191 32.8071 170.229 27.0037 162.881 27.0037C155.533 27.0037 149.567 32.8022 149.567 39.9578V40.4562Z" fill="#4068B2"/>
<path d="M196.423 16.8034C198.826 14.4692 202.715 14.4692 205.113 16.8034L220.224 31.5093L235.339 16.8034C237.738 14.4692 241.631 14.4692 244.03 16.8034C246.433 19.1376 246.433 22.9226 244.03 25.2568L228.914 39.9578L244.03 54.6589C246.433 56.9931 246.433 60.7781 244.03 63.1123C241.631 65.4465 237.738 65.4465 235.339 63.1123L220.224 48.4113L205.113 63.1123C202.715 65.4465 198.826 65.4465 196.423 63.1123C194.024 60.7781 194.024 56.9931 196.423 54.6589L211.538 39.9578L196.423 25.2568C194.024 22.9226 194.024 19.1376 196.423 16.8034Z" fill="#4068B2"/>
<path d="M22.587 0H0V22.5821H22.587V0Z" fill="#FEDD00"/>
<path d="M22.587 0H0V11.2861H22.587V0Z" fill="#205AA9"/>
</g>
</svg>
