<svg width="201" height="65" viewBox="0 0 201 65" fill="none" xmlns="http://www.w3.org/2000/svg">
<path d="M34.0518 35.5633C31.846 33.957 29.1298 32.655 26.2215 32.655C20.3908 32.655 15.7731 37.0713 15.7731 42.7896C15.7731 48.8076 20.1895 53.0225 26.5212 53.0225C29.2328 53.0225 32.1458 52.0203 34.1549 50.2125V62.6559C30.8391 64.2622 27.1207 64.9647 23.4068 64.9647C10.645 64.9647 0 55.8324 0 43.2907C0 29.9481 10.5467 20.7128 24.0063 20.7128C27.5234 20.7128 31.0405 21.5136 34.0518 23.12V35.5633Z" fill="black"/>
<path d="M88.2931 42.7896C88.2931 56.933 76.8426 64.8617 63.6873 64.8617C50.5321 64.8617 39.0815 56.933 39.0815 42.7896C39.0815 28.6462 50.5321 20.6144 63.6873 20.6144C76.8426 20.6144 88.2931 28.6415 88.2931 42.7896ZM54.3442 43.5904C54.3442 49.0089 57.7583 53.2239 63.6826 53.2239C69.6069 53.2239 73.021 49.0089 73.021 43.5904C73.021 38.1719 69.6069 33.8586 63.6826 33.8586C57.7583 33.8586 54.3442 38.2749 54.3442 43.5904Z" fill="black"/>
<path d="M91.7122 22.0194H109.888L117.123 30.8473L124.354 22.0194H142.933L126.26 41.6843L146.45 64.9647H127.572L117.123 52.2216L106.675 64.9647H87.8906L108.08 41.6843L91.7075 22.0194H91.7122Z" fill="black"/>
<path d="M167.749 9.17325C167.749 13.8893 163.932 17.7014 159.212 17.7014C154.491 17.7014 150.669 13.8893 150.669 9.17325C150.669 4.45722 154.486 0.645081 159.212 0.645081C163.937 0.645081 167.749 4.45722 167.749 9.17325ZM166.742 64.9647H151.475V22.0194H166.742V64.9647Z" fill="black"/>
<path d="M192.355 64.9648H177.088V34.5611H172.166V22.0194H177.088V9.17328H192.355V22.0194H201V34.5611H192.355V64.9648Z" fill="black"/>
</svg>
