<svg width="380" height="62" viewBox="0 0 380 62" fill="none" xmlns="http://www.w3.org/2000/svg">
<mask id="mask0_3179_29497" style="mask-type:luminance" maskUnits="userSpaceOnUse" x="0" y="0" width="380" height="62">
<path d="M380 0.790222H0V61.9648H380V0.790222Z" fill="white"/>
</mask>
<g mask="url(#mask0_3179_29497)">
<path d="M23.6872 28.88H40.3138C38.1614 35.8644 31.1444 41.0172 22.8121 41.0172C12.7947 41.0172 4.62547 33.5545 4.62547 24.3796C4.62547 15.2048 12.8002 7.7475 22.8121 7.7475C30.3889 7.7475 36.9004 12.0088 39.6344 18.0529H44.5697C41.6346 9.63357 33.0033 3.5188 22.8229 3.5188C10.251 3.5188 0 12.8785 0 24.3796C0 35.8808 10.251 45.2512 22.8175 45.2512C30.0084 45.2512 36.6939 41.952 40.6019 37.1852V44.349H44.8306V24.7057H23.6926V28.88H23.6872Z" fill="#424142"/>
<path d="M57.0983 4.81232H52.5488V44.3489H57.0983V4.81232Z" fill="#424142"/>
<path d="M191.595 4.81232H187.045V44.3054H191.595V4.81232Z" fill="#424142"/>
<path d="M80.8292 41.49C73.8285 41.49 68.154 35.9894 68.154 29.6138C68.154 23.2381 73.834 17.7647 80.8292 17.7647C87.8245 17.7647 93.5044 23.2218 93.5044 29.6138C93.5044 36.0057 87.8136 41.49 80.8292 41.49ZM80.8292 13.8078C71.2902 13.8078 63.5503 20.8901 63.5503 29.6029C63.5503 38.3157 71.3011 45.3979 80.8292 45.3979C90.3574 45.3979 98.119 38.3103 98.119 29.6029C98.119 20.8955 90.3574 13.8078 80.8292 13.8078Z" fill="#424142"/>
<path d="M120.68 41.4899C113.669 41.4899 107.989 35.9894 107.989 29.6192C107.989 23.249 113.669 17.7702 120.68 17.7702C127.692 17.7702 133.345 23.2272 133.345 29.6192C133.345 36.0111 127.67 41.5008 120.68 41.5008M120.876 13.5197C115.75 13.5197 111.174 15.5743 107.994 18.8355V4.81232H103.445V44.3489H107.994V40.3811C111.174 43.6314 115.756 45.686 120.876 45.686C130.475 45.686 138.263 38.4951 138.263 29.6138C138.263 20.7324 130.475 13.5252 120.876 13.5252" fill="#424142"/>
<path d="M161.772 41.4683C154.782 41.4683 149.097 35.9786 149.097 29.5867C149.097 23.1947 154.782 17.7377 161.772 17.7377C168.762 17.7377 174.447 23.1838 174.447 29.5867C174.447 35.9895 168.767 41.4683 161.772 41.4683ZM174.485 18.8899C171.267 15.6016 166.604 13.5198 161.391 13.5198C151.673 13.5198 143.797 20.7217 143.797 29.603C143.797 38.4843 151.673 45.6807 161.391 45.6861C166.604 45.6861 171.267 43.5989 174.485 40.316V44.349H179.089V15.395H174.485V18.8899Z" fill="#424142"/>
<path d="M319.489 0.790222H311.412V7.7746H319.489V0.790222Z" fill="#424142"/>
<path d="M207.836 4.81232H200.444V44.3108H224.669V37.9678H207.836V4.81232Z" fill="#424142"/>
<path d="M319.489 13.2318H311.412V44.2566H319.489V13.2318Z" fill="#424142"/>
<path d="M245.155 38.9245C239.763 38.9245 235.377 34.6306 235.377 29.3366C235.377 24.0426 239.769 19.7432 245.155 19.7432C250.541 19.7432 254.939 24.0371 254.939 29.3366C254.939 34.636 250.547 38.9245 245.155 38.9245ZM245.155 13.1339C235.377 13.1339 227.419 20.3901 227.419 29.3475C227.419 38.3049 235.361 45.5502 245.155 45.5502C254.949 45.5502 262.874 38.3049 262.874 29.3475C262.874 20.3901 254.939 13.1339 245.155 13.1339Z" fill="#424142"/>
<path d="M353.139 33.7011C351.525 36.8482 348.215 39.006 344.383 39.006C338.975 39.006 334.588 34.6958 334.588 29.3964C334.588 23.6132 338.975 19.7976 344.383 19.7976C348.03 19.7976 351.209 21.7489 352.894 24.6405H361.346C359.129 18.004 352.367 13.1774 344.383 13.1774C334.588 13.1774 326.636 20.4444 326.636 29.4073C326.636 38.3701 334.588 45.6208 344.383 45.6208C352.547 45.6208 359.411 40.566 361.477 33.7011H353.128H353.139Z" fill="#424142"/>
<path d="M284.583 55.0348C280.968 55.0348 277.517 53.3064 275.419 50.7083L268.25 53.8934C271.63 58.7417 277.288 61.9757 284.583 61.9649C294.04 61.9649 301.769 55.1272 302.546 46.8492H294.437C293.736 51.4747 289.589 55.0348 284.583 55.0348Z" fill="#424142"/>
<path d="M284.958 39.0821C279.582 39.0821 275.207 34.7882 275.207 29.5213C275.207 24.2545 279.577 19.966 284.958 19.966C290.339 19.966 294.719 24.2382 294.719 29.5213C294.719 34.8045 290.349 39.0821 284.958 39.0821ZM295.317 16.4657C292.404 14.5307 288.828 13.3784 284.958 13.3784C275.207 13.3784 267.304 20.5965 267.304 29.5268C267.304 38.457 275.218 45.6697 284.958 45.6697C294.698 45.6697 302.574 38.4788 302.612 29.5974V13.2589H295.317V16.4657Z" fill="#424142"/>
<path d="M375.239 4.5895C375.473 4.5895 375.674 4.62755 375.87 4.69278C376.049 4.76343 376.217 4.86128 376.348 4.96998C376.478 5.08956 376.576 5.23086 376.652 5.38848C376.723 5.5461 376.75 5.71462 376.75 5.88855C376.75 6.16576 376.69 6.41032 376.554 6.61143C376.424 6.81797 376.223 6.96475 375.929 7.07345C376.071 7.11693 376.179 7.1767 376.272 7.25279C376.364 7.32345 376.435 7.405 376.5 7.50827C376.56 7.61154 376.598 7.7148 376.63 7.83438C376.658 7.95396 376.674 8.07355 376.679 8.19313C376.679 8.26922 376.679 8.36161 376.69 8.45401C376.701 8.54641 376.701 8.66056 376.707 8.76927C376.718 8.87254 376.739 8.97581 376.766 9.06821C376.799 9.16061 376.837 9.24758 376.891 9.30736H375.755C375.696 9.15517 375.652 8.98125 375.647 8.76927C375.636 8.56273 375.603 8.36161 375.587 8.17681C375.543 7.92135 375.462 7.74741 375.342 7.62783C375.217 7.51913 375.005 7.45393 374.717 7.45393H373.581V9.30192H372.445V4.57318H375.239V4.5895ZM374.826 6.72558C375.092 6.72558 375.283 6.67124 375.413 6.56797C375.543 6.4647 375.609 6.29076 375.609 6.05161C375.609 5.81245 375.549 5.6494 375.413 5.55157C375.283 5.4483 375.092 5.39392 374.826 5.39392H373.576V6.72558H374.826Z" fill="#424142"/>
<path d="M374.565 11.9218C371.57 11.9218 369.135 9.68786 369.135 6.94845C369.135 4.20905 371.57 1.98059 374.565 1.98059C377.56 1.98059 380 4.20905 380 6.94845C380 9.68786 377.56 11.9218 374.565 11.9218ZM374.565 2.80674C372.064 2.80674 370.037 4.66562 370.037 6.94845C370.037 9.23129 372.07 11.0956 374.565 11.0956C377.059 11.0956 379.098 9.23673 379.098 6.94845C379.098 4.66018 377.065 2.80674 374.565 2.80674Z" fill="#424142"/>
</g>
</svg>
