<svg width="223" height="98" viewBox="0 0 223 98" fill="none" xmlns="http://www.w3.org/2000/svg">
<path d="M65.9327 3.83538C65.9327 3.83538 60.7034 4.68707 55.1168 6.12566C50.8936 7.20682 47.9723 8.11586 46.8735 8.46448V8.42917C45.2672 8.92341 43.7095 9.45296 42.1738 9.98251C43.7315 11.5138 44.7156 13.6187 44.7951 15.9487C46.0395 15.4059 47.3016 14.8764 48.5945 14.3601V14.3468C50.0375 13.8305 53.9385 12.414 57.2967 11.2843C61.4845 9.86775 67.1771 8.1291 67.1771 8.1291C83.7386 3.5706 102.087 0.922889 119.174 1.05086C99.4705 -0.122961 81.5454 1.01554 65.9371 3.83977M222.748 65.9951C205.018 82.0535 164.627 91.422 118.486 91.422C55.8096 91.422 15.3082 73.0822 12.4796 48.8202C11.4293 39.7032 18.6311 30.8863 30.6033 23.3535C28.4895 21.7649 27.1171 19.2672 27.0597 16.4473C9.77892 25.4849 0 37.3776 0 49.4556C0 76.18 47.9282 98.8489 119.139 97.856C167.579 97.1897 204.387 83.4083 223 66.5467L222.722 66.0039" fill="#EA1C42"/>
<path d="M29.4072 16.2752C29.4072 12.6743 32.3285 9.7486 35.9383 9.7486C39.548 9.7486 42.4826 12.6743 42.4826 16.2752C42.4826 19.8762 39.5524 22.793 35.9383 22.793C32.3241 22.793 29.4072 19.8806 29.4072 16.2752Z" fill="#0B67B2"/>
<path d="M33.0571 65.3331V27.9385L39.2219 27.1221V65.3331H33.0571Z" fill="#0B67B2"/>
<path d="M59.9401 65.3331V43.9351C59.9401 41.4948 59.7194 40.4931 59.234 39.8047C58.7972 39.1824 58.0337 38.9971 57.2129 38.9971C56.0215 38.9971 54.2342 39.9988 52.7559 41.8037V65.3331H46.6265V42.0023C46.6265 38.1807 46.1322 36.0493 45.8057 34.3018L51.5645 32.8058C51.7277 33.3707 52.2705 34.924 52.3279 36.5612C53.8989 34.6151 56.7849 32.9912 59.6003 32.9912C61.7803 32.9912 63.5145 33.8649 64.6001 35.2462C65.8577 36.8127 66.0652 38.9309 66.0652 41.0623V65.3375H59.9357" fill="#0B67B2"/>
<path d="M86.1169 25.7761C85.4108 25.2112 84.2723 24.845 83.1868 24.845C81.6643 24.845 80.7376 26.2836 80.7376 28.7239V33.5957H86.4964L85.3535 38.9838H80.7376V65.3331H74.436V38.9838H72.3223V33.5957H74.436C74.436 33.5957 74.3301 31.4069 74.3301 29.4079C74.3301 24.6552 75.9011 22.1575 77.3662 20.8999C78.8445 19.7128 80.517 19.3333 82.1012 19.3333C84.3738 19.3333 86.2316 19.8408 87.86 21.0278L86.1169 25.7805" fill="#0B67B2"/>
<path d="M91.223 65.3331V33.8031L97.4672 32.9867V65.3331H91.223ZM94.2105 29.174C91.982 29.174 90.1948 27.3647 90.1948 25.1097C90.1948 22.8548 92.0394 21.0587 94.3164 21.0587C96.5935 21.0587 98.3454 22.868 98.3454 25.1097C98.3454 27.3515 96.5008 29.174 94.2149 29.174H94.2105Z" fill="#0B67B2"/>
<path d="M118.636 65.3331V43.9351C118.636 41.4948 118.428 40.4931 117.93 39.8047C117.502 39.1824 116.743 38.9971 115.922 38.9971C114.722 38.9971 112.934 39.9988 111.465 41.8037V65.3331H105.322V42.0023C105.322 38.1807 104.837 36.0493 104.515 34.3018L110.273 32.8058C110.437 33.3707 110.98 34.924 111.037 36.5612C112.608 34.6151 115.481 32.9912 118.309 32.9912C120.48 32.9912 122.223 33.8649 123.309 35.2462C124.553 36.8127 124.774 38.9309 124.774 41.0623V65.3375H118.631" fill="#0B67B2"/>
<path d="M144.371 40.2415C143.771 38.8029 142.792 37.9292 141.221 37.9292C138.449 37.9292 137.249 40.4975 137.147 46.1239H145.077C145.077 43.6262 144.857 41.4948 144.371 40.2415ZM137.143 51.1899V51.8209C137.143 53.8817 137.306 55.7572 138.065 57.3944C138.988 59.3272 140.559 60.3995 142.461 60.3995C144.689 60.3995 146.591 59.2698 148.497 57.2664L150.933 61.8249C148.219 64.7727 145.289 66.0833 141.918 66.0833C134.694 66.0833 130.559 59.892 130.559 49.3806C130.559 43.9351 131.495 39.9282 133.502 36.923C135.396 34.112 138.004 32.7352 141.154 32.7352C144.142 32.7352 146.534 33.9311 148.219 36.1199C150.448 38.9971 151.313 42.8804 151.313 49.8174V51.1854H137.139" fill="#0B67B2"/>
<path d="M166.189 38.3661C162.058 38.3661 162.058 45.8724 162.058 49.1291C162.058 52.5711 161.957 60.5143 166.352 60.5143C170.425 60.5143 170.425 52.5711 170.425 49.2571C170.425 45.943 170.588 38.3661 166.189 38.3661ZM166.189 66.1495C157.716 66.1495 155.487 57.1473 155.43 49.3894C155.373 41.561 158.201 32.7441 166.246 32.7441C172.596 32.7441 177.155 38.4411 177.155 49.2615C177.155 57.3326 174.498 66.1495 166.189 66.1495Z" fill="#0B67B2"/>
<path d="M195.636 65.3331V43.9351C195.636 41.4948 195.415 40.4931 194.921 39.8047C194.493 39.1824 193.734 38.9971 192.913 38.9971C191.726 38.9971 189.926 39.9988 188.456 41.8037V65.3331H182.327V42.0023C182.327 38.1807 181.832 36.0493 181.506 34.3018L187.265 32.8058C187.428 33.3707 187.971 34.924 188.028 36.5612C189.599 34.6151 192.472 32.9912 195.3 32.9912C197.472 32.9912 199.215 33.8649 200.3 35.2462C201.549 36.8127 201.765 38.9309 201.765 41.0623V65.3375H195.636" fill="#0B67B2"/>
</svg>
