<svg width="380" height="74" viewBox="0 0 380 74" fill="none" xmlns="http://www.w3.org/2000/svg">
<mask id="mask0_3178_29033" style="mask-type:luminance" maskUnits="userSpaceOnUse" x="0" y="0" width="380" height="74">
<path d="M380 0.425385H0V73.4043H380V0.425385Z" fill="white"/>
</mask>
<g mask="url(#mask0_3178_29033)">
<path d="M22.9057 69.6442C21.8293 69.6442 20.913 69.4389 20.152 69.0234C19.391 68.5978 18.7451 68.017 18.2144 67.281L19.391 66.2696C19.8616 66.9055 20.3773 67.3862 20.9481 67.7266C21.5188 68.0521 22.1897 68.2123 22.9608 68.2123C23.9121 68.2123 24.6331 67.9769 25.1287 67.5113C25.6344 67.0507 25.8898 66.4299 25.8898 65.6538C25.8898 65.0079 25.6995 64.5073 25.319 64.1618C24.9385 63.8113 24.3126 63.5359 23.4364 63.3306L22.355 63.0803C21.1383 62.7949 20.2071 62.3694 19.5612 61.8036C18.9303 61.2228 18.6099 60.4067 18.6099 59.3603C18.6099 58.7695 18.715 58.2388 18.9353 57.7731C19.1506 57.3125 19.446 56.922 19.8265 56.6116C20.2171 56.3012 20.6827 56.0658 21.2134 55.9156C21.7592 55.7454 22.355 55.6603 23.0008 55.6603C24.0022 55.6603 24.8584 55.8505 25.5643 56.221C26.2853 56.5965 26.8961 57.1473 27.3868 57.8683L26.1902 58.7594C25.8247 58.2438 25.3791 57.8332 24.8584 57.5378C24.3377 57.2424 23.6918 57.0922 22.9207 57.0922C22.0746 57.0922 21.3987 57.2825 20.908 57.653C20.4274 58.0135 20.187 58.5642 20.187 59.3002C20.187 59.9461 20.3873 60.4367 20.7929 60.7722C21.2084 61.0976 21.8393 61.353 22.6754 61.5433L23.7569 61.7986C25.0586 62.099 26.0049 62.5446 26.5857 63.1554C27.1665 63.7612 27.4569 64.5673 27.4569 65.5787C27.4569 66.1945 27.3517 66.7553 27.1364 67.261C26.9312 67.7666 26.6358 68.1922 26.2452 68.5377C25.8547 68.8882 25.3741 69.1586 24.8033 69.3538C24.2475 69.5491 23.6117 69.6442 22.9057 69.6442Z" fill="#EDAF4E"/>
<path d="M33.7707 69.6441C33.1098 69.6441 32.509 69.524 31.9683 69.2786C31.4225 69.0333 30.9569 68.6829 30.5614 68.2272C30.1809 67.7666 29.8855 67.2158 29.6702 66.58C29.4549 65.9341 29.3447 65.2131 29.3447 64.4071C29.3447 63.601 29.4549 62.905 29.6702 62.2541C29.8855 61.6082 30.1809 61.0625 30.5614 60.6069C30.9519 60.1413 31.4225 59.7858 31.9683 59.5405C32.514 59.2951 33.1148 59.175 33.7707 59.175C34.4266 59.175 35.0224 59.2951 35.5581 59.5405C36.1039 59.7858 36.5695 60.1413 36.9651 60.6069C37.3556 61.0625 37.661 61.6082 37.8763 62.2541C38.0916 62.9 38.2017 63.621 38.2017 64.4071C38.2017 65.1931 38.0966 65.9291 37.8763 66.58C37.661 67.2158 37.3556 67.7616 36.9651 68.2272C36.5745 68.6829 36.1039 69.0283 35.5581 69.2786C35.0274 69.524 34.4316 69.6441 33.7707 69.6441ZM33.7707 68.2673C34.5918 68.2673 35.2627 68.012 35.7835 67.4963C36.3042 66.9756 36.5645 66.1945 36.5645 65.133V63.6961C36.5645 62.6396 36.3042 61.8536 35.7835 61.3329C35.2627 60.8122 34.5918 60.5569 33.7707 60.5569C32.9496 60.5569 32.2787 60.8172 31.758 61.3329C31.2373 61.8486 30.9769 62.6346 30.9769 63.6961V65.133C30.9769 66.1894 31.2373 66.9756 31.758 67.4963C32.2787 68.012 32.9496 68.2673 33.7707 68.2673Z" fill="#EDAF4E"/>
<path d="M41.1157 60.7671H39.5186V59.4103H41.1157V57.3926C41.1157 56.6966 41.291 56.1309 41.6464 55.7103C42.0019 55.2847 42.5376 55.0694 43.2586 55.0694H44.7406V56.4263H42.6328V59.4103H44.7406V60.7671H42.6328V69.4088H41.1107V60.7671H41.1157Z" fill="#EDAF4E"/>
<path d="M48.9115 69.4088C48.3808 69.4088 47.9752 69.2636 47.6949 68.9632C47.4295 68.6528 47.2943 68.2573 47.2943 67.7616V60.7671H45.6821V59.4103H46.5934C46.9238 59.4103 47.1441 59.3452 47.2593 59.215C47.3844 59.0749 47.4495 58.8345 47.4495 58.499V56.6365H48.8164V59.4103H50.9643V60.7671H48.8164V68.052H50.8091V69.4088H48.9115Z" fill="#EDAF4E"/>
<path d="M52.376 59.4103H53.858L54.9044 63.7262L55.9508 68.1071H55.9909L57.1875 63.7262L58.4242 59.4103H59.771L61.0427 63.7262L62.2594 68.1071H62.2994L63.3058 63.7262L64.3672 59.4103H65.7942L63.1906 69.4088H61.3081L59.9412 64.6023L59.0851 61.5632H59.045L58.2089 64.6023L56.842 69.4088H54.9995L52.376 59.4103Z" fill="#EDAF4E"/>
<path d="M74.941 69.4088C74.3702 69.4088 73.9597 69.2536 73.7043 68.9482C73.464 68.6378 73.3138 68.2473 73.2487 67.7816H73.1536C72.9383 68.4025 72.5828 68.8681 72.0871 69.1785C71.5915 69.489 71.0057 69.6441 70.3197 69.6441C69.2833 69.6441 68.4722 69.3738 67.8864 68.833C67.3157 68.2873 67.0303 67.5513 67.0303 66.6201C67.0303 65.6888 67.3657 64.9528 68.0366 64.4471C68.7226 63.9464 69.779 63.6911 71.2109 63.6911H73.1486V62.7047C73.1486 61.9938 72.9583 61.448 72.5778 61.0775C72.1973 60.702 71.6165 60.5168 70.8304 60.5168C70.2346 60.5168 69.7339 60.652 69.3284 60.9224C68.9379 61.1927 68.6074 61.5532 68.342 62.0038L67.4308 61.1326C67.6962 60.5869 68.1218 60.1312 68.7025 59.7557C69.2833 59.3702 70.0193 59.175 70.9055 59.175C72.0971 59.175 73.0184 59.4753 73.6793 60.0661C74.3402 60.662 74.6656 61.4881 74.6656 62.5496V68.052H75.7871V69.4088H74.931H74.941ZM70.5701 68.3273C70.9506 68.3273 71.296 68.2823 71.6165 68.1922C71.9319 68.1021 72.2073 67.9719 72.4326 67.8017C72.6579 67.6314 72.8381 67.4412 72.9633 67.2209C73.0885 67.0006 73.1536 66.7653 73.1536 66.5049V64.8577H71.1408C70.2697 64.8577 69.6288 64.9879 69.2232 65.2432C68.8327 65.5036 68.6324 65.8791 68.6324 66.3697V66.7753C68.6324 67.2659 68.8027 67.6465 69.1431 67.9218C69.4986 68.1922 69.9743 68.3273 70.5651 68.3273H70.5701Z" fill="#EDAF4E"/>
<path d="M77.9604 69.4088V59.4103H79.4825V61.2478H79.5776C79.7529 60.7672 80.0733 60.3466 80.5289 59.9711C80.9845 59.5956 81.6104 59.4103 82.4115 59.4103H83.0023V60.9624H82.1111C81.29 60.9624 80.6441 61.1226 80.1734 61.448C79.7178 61.7585 79.4875 62.154 79.4875 62.6296V69.4088H77.9655H77.9604Z" fill="#EDAF4E"/>
<path d="M88.53 69.6441C87.8591 69.6441 87.2533 69.524 86.7075 69.2786C86.1768 69.0333 85.7112 68.6829 85.3206 68.2272C84.9401 67.7666 84.6447 67.2158 84.4294 66.58C84.2292 65.9341 84.124 65.2131 84.124 64.4071C84.124 63.601 84.2242 62.905 84.4294 62.2541C84.6447 61.6082 84.9401 61.0625 85.3206 60.6069C85.7112 60.1413 86.1768 59.7858 86.7075 59.5405C87.2533 59.2951 87.8591 59.175 88.53 59.175C89.2009 59.175 89.7767 59.2951 90.2974 59.5405C90.8181 59.7858 91.2587 60.1262 91.6292 60.5668C91.9947 60.9924 92.2751 61.5031 92.4653 62.0939C92.6656 62.6897 92.7707 63.3406 92.7707 64.0566V64.7926H85.7212V65.2582C85.7212 65.6838 85.7863 66.0843 85.9114 66.4598C86.0516 66.8203 86.2419 67.1358 86.4822 67.4111C86.7376 67.6815 87.038 67.8968 87.3935 68.052C87.7589 68.2072 88.1745 68.2873 88.6301 68.2873C89.251 68.2873 89.7867 68.1421 90.2423 67.8417C90.713 67.5413 91.0734 67.1158 91.3238 66.565L92.4053 67.3611C92.0898 68.042 91.5941 68.6027 90.9232 69.0233C90.2523 69.4389 89.4562 69.6441 88.53 69.6441ZM88.53 60.4818C88.1144 60.4818 87.7339 60.5568 87.3884 60.712C87.048 60.8522 86.7476 61.0625 86.4972 61.3329C86.2569 61.6032 86.0667 61.9287 85.9265 62.2992C85.7863 62.6597 85.7162 63.0652 85.7162 63.5058V63.641H91.1285V63.4308C91.1285 62.5345 90.8882 61.8286 90.4075 61.2979C89.9369 60.7521 89.3111 60.4868 88.525 60.4868L88.53 60.4818Z" fill="#EDAF4E"/>
<path d="M99.9106 55.8855H104.357C105.178 55.8855 105.929 56.0257 106.6 56.3111C107.271 56.5965 107.841 57.0171 108.307 57.5878C108.788 58.1436 109.153 58.8495 109.409 59.7007C109.664 60.5368 109.789 61.5232 109.789 62.6447C109.789 63.7662 109.664 64.7576 109.409 65.6137C109.153 66.4499 108.788 67.1558 108.307 67.7266C107.836 68.2773 107.271 68.7029 106.6 68.9833C105.929 69.2687 105.183 69.4089 104.357 69.4089H99.9106V55.8855ZM104.357 67.9769C104.902 67.9769 105.403 67.8868 105.859 67.7065C106.314 67.5113 106.705 67.2359 107.035 66.8755C107.366 66.515 107.616 66.0744 107.796 65.5587C107.987 65.033 108.082 64.4271 108.082 63.7562V61.5432C108.082 60.8723 107.987 60.2765 107.796 59.7608C107.621 59.2351 107.366 58.7895 107.035 58.429C106.705 58.0685 106.314 57.7932 105.859 57.6129C105.403 57.4226 104.902 57.3225 104.357 57.3225H101.508V67.9819H104.357V67.9769Z" fill="#EDAF4E"/>
<path d="M116.187 69.6441C115.516 69.6441 114.91 69.524 114.365 69.2786C113.834 69.0333 113.368 68.6829 112.978 68.2272C112.597 67.7666 112.302 67.2158 112.087 66.58C111.886 65.9341 111.781 65.2131 111.781 64.4071C111.781 63.601 111.881 62.905 112.087 62.2541C112.302 61.6082 112.597 61.0625 112.978 60.6069C113.368 60.1413 113.834 59.7858 114.365 59.5405C114.91 59.2951 115.516 59.175 116.187 59.175C116.858 59.175 117.434 59.2951 117.955 59.5405C118.475 59.7858 118.916 60.1262 119.286 60.5668C119.652 60.9924 119.932 61.5031 120.123 62.0939C120.323 62.6897 120.428 63.3406 120.428 64.0566V64.7926H113.383V65.2582C113.383 65.6838 113.449 66.0843 113.574 66.4598C113.714 66.8203 113.904 67.1358 114.144 67.4111C114.4 67.6815 114.7 67.8968 115.056 68.052C115.421 68.2072 115.837 68.2873 116.292 68.2873C116.913 68.2873 117.449 68.1421 117.905 67.8417C118.375 67.5413 118.736 67.1158 118.986 66.565L120.067 67.3611C119.752 68.042 119.256 68.6027 118.585 69.0233C117.915 69.4389 117.118 69.6441 116.192 69.6441H116.187ZM116.187 60.4818C115.772 60.4818 115.391 60.5568 115.046 60.712C114.705 60.8522 114.405 61.0625 114.154 61.3329C113.914 61.6032 113.724 61.9287 113.584 62.2992C113.444 62.6597 113.373 63.0652 113.373 63.5058V63.641H118.786V63.4308C118.786 62.5345 118.545 61.8286 118.065 61.2979C117.594 60.7521 116.968 60.4868 116.182 60.4868L116.187 60.4818Z" fill="#EDAF4E"/>
<path d="M124.945 69.4088L121.505 59.4103H123.027L124.734 64.3721L125.801 67.7766H125.896L126.957 64.3721L128.705 59.4103H130.167L126.712 69.4088H124.945Z" fill="#EDAF4E"/>
<path d="M135.664 69.6441C134.993 69.6441 134.388 69.524 133.842 69.2786C133.311 69.0333 132.845 68.6829 132.455 68.2272C132.074 67.7666 131.779 67.2158 131.564 66.58C131.358 65.9341 131.258 65.2131 131.258 64.4071C131.258 63.601 131.358 62.905 131.564 62.2541C131.779 61.6082 132.074 61.0625 132.455 60.6069C132.845 60.1413 133.311 59.7858 133.842 59.5405C134.388 59.2951 134.993 59.175 135.664 59.175C136.335 59.175 136.911 59.2951 137.432 59.5405C137.952 59.7858 138.393 60.1262 138.763 60.5668C139.129 60.9924 139.409 61.5031 139.6 62.0939C139.8 62.6897 139.905 63.3406 139.905 64.0566V64.7926H132.86V65.2582C132.86 65.6838 132.926 66.0843 133.051 66.4598C133.191 66.8203 133.381 67.1358 133.622 67.4111C133.877 67.6815 134.177 67.8968 134.533 68.052C134.898 68.2072 135.314 68.2873 135.769 68.2873C136.39 68.2873 136.926 68.1421 137.382 67.8417C137.852 67.5413 138.213 67.1158 138.463 66.565L139.545 67.3611C139.229 68.042 138.733 68.6027 138.063 69.0233C137.392 69.4389 136.596 69.6441 135.669 69.6441H135.664ZM135.664 60.4818C135.249 60.4818 134.868 60.5568 134.523 60.712C134.182 60.8522 133.882 61.0625 133.632 61.3329C133.391 61.6032 133.201 61.9287 133.061 62.2992C132.921 62.6597 132.85 63.0652 132.85 63.5058V63.641H138.263V63.4308C138.263 62.5345 138.022 61.8286 137.542 61.2979C137.071 60.7521 136.445 60.4868 135.659 60.4868L135.664 60.4818Z" fill="#EDAF4E"/>
<path d="M144.021 69.4088C143.49 69.4088 143.084 69.2636 142.804 68.9632C142.538 68.6528 142.403 68.2623 142.403 67.8017V55.0694H143.925V68.052H145.367V69.4088H144.021Z" fill="#EDAF4E"/>
<path d="M151.285 69.6441C150.624 69.6441 150.023 69.524 149.482 69.2786C148.937 69.0333 148.471 68.6829 148.075 68.2272C147.695 67.7666 147.399 67.2158 147.184 66.58C146.969 65.9341 146.864 65.2131 146.864 64.4071C146.864 63.601 146.969 62.905 147.184 62.2541C147.399 61.6082 147.695 61.0625 148.075 60.6069C148.466 60.1413 148.937 59.7858 149.482 59.5405C150.028 59.2951 150.629 59.175 151.285 59.175C151.941 59.175 152.536 59.2951 153.072 59.5405C153.618 59.7858 154.084 60.1413 154.479 60.6069C154.87 61.0625 155.175 61.6082 155.39 62.2541C155.606 62.9 155.711 63.621 155.711 64.4071C155.711 65.1931 155.606 65.9291 155.39 66.58C155.175 67.2158 154.87 67.7616 154.479 68.2272C154.089 68.6829 153.618 69.0283 153.072 69.2786C152.541 69.524 151.946 69.6441 151.285 69.6441ZM151.285 68.2673C152.106 68.2673 152.777 68.012 153.297 67.4963C153.818 66.9756 154.079 66.1945 154.079 65.133V63.6961C154.079 62.6396 153.818 61.8536 153.297 61.3329C152.777 60.8122 152.106 60.5569 151.285 60.5569C150.464 60.5569 149.793 60.8172 149.272 61.3329C148.751 61.8486 148.491 62.6346 148.491 63.6961V65.133C148.491 66.1894 148.751 66.9756 149.272 67.4963C149.793 68.012 150.464 68.2673 151.285 68.2673Z" fill="#EDAF4E"/>
<path d="M158.21 59.4103H159.732V61.0375H159.807C160.062 60.4016 160.428 59.936 160.909 59.6406C161.404 59.3302 161.99 59.175 162.676 59.175C163.282 59.175 163.833 59.2951 164.328 59.5405C164.824 59.7858 165.239 60.1363 165.58 60.5869C165.935 61.0425 166.201 61.5883 166.376 62.2341C166.566 62.88 166.661 63.601 166.661 64.402C166.661 65.2031 166.566 65.9291 166.376 66.575C166.201 67.2208 165.93 67.7716 165.58 68.2222C165.239 68.6778 164.819 69.0233 164.328 69.2736C163.833 69.519 163.282 69.6391 162.676 69.6391C161.344 69.6391 160.388 69.0183 159.807 67.7766H159.732V73.2841H158.21V59.4103ZM162.255 68.2473C163.117 68.2473 163.793 67.9769 164.288 67.4362C164.784 66.8804 165.029 66.1544 165.029 65.2632V63.5559C165.029 62.6647 164.784 61.9487 164.288 61.403C163.793 60.8472 163.117 60.5718 162.255 60.5718C161.915 60.5718 161.585 60.6219 161.269 60.7271C160.964 60.8172 160.698 60.9474 160.473 61.1176C160.243 61.2879 160.062 61.4881 159.922 61.7334C159.797 61.9688 159.732 62.2191 159.732 62.4895V66.2095C159.732 66.5349 159.797 66.8203 159.922 67.0807C160.062 67.326 160.243 67.5363 160.473 67.7215C160.698 67.8918 160.969 68.022 161.269 68.1121C161.585 68.2022 161.915 68.2473 162.255 68.2473Z" fill="#EDAF4E"/>
<path d="M169.229 69.4088V59.4103H170.752V61.0375H170.827C170.942 60.7771 171.067 60.5368 171.207 60.3215C171.357 60.0862 171.538 59.8859 171.738 59.7207C171.953 59.5505 172.199 59.4203 172.479 59.3302C172.759 59.225 173.085 59.175 173.465 59.175C174.111 59.175 174.707 59.3352 175.253 59.6606C175.798 59.9711 176.204 60.4917 176.469 61.2127H176.509C176.685 60.667 177.015 60.1964 177.496 59.7958C177.991 59.3853 178.652 59.18 179.488 59.18C180.49 59.18 181.266 59.5154 181.827 60.1863C182.397 60.8472 182.683 61.7835 182.683 62.9952V69.4088H181.161V63.2705C181.161 62.3743 180.99 61.7084 180.65 61.2528C180.31 60.7971 179.764 60.5769 179.018 60.5769C178.712 60.5769 178.422 60.6169 178.147 60.692C177.881 60.7721 177.641 60.8873 177.426 61.0425C177.21 61.1977 177.04 61.398 176.915 61.6433C176.79 61.8786 176.725 62.154 176.725 62.4744V69.4088H175.203V63.2705C175.203 62.3743 175.032 61.7084 174.692 61.2528C174.351 60.7971 173.816 60.5769 173.095 60.5769C172.789 60.5769 172.499 60.6169 172.219 60.692C171.938 60.7721 171.693 60.8873 171.478 61.0425C171.262 61.1977 171.087 61.398 170.947 61.6433C170.822 61.8786 170.757 62.154 170.757 62.4744V69.4088H169.234H169.229Z" fill="#EDAF4E"/>
<path d="M189.497 69.6441C188.826 69.6441 188.22 69.524 187.674 69.2786C187.144 69.0333 186.678 68.6829 186.287 68.2272C185.907 67.7666 185.612 67.2158 185.396 66.58C185.191 65.9341 185.091 65.2131 185.091 64.4071C185.091 63.601 185.191 62.905 185.396 62.2541C185.612 61.6082 185.907 61.0625 186.287 60.6069C186.678 60.1413 187.144 59.7858 187.674 59.5405C188.22 59.2951 188.826 59.175 189.497 59.175C190.168 59.175 190.743 59.2951 191.264 59.5405C191.785 59.7858 192.225 60.1262 192.596 60.5668C192.961 60.9924 193.242 61.5031 193.432 62.0939C193.637 62.6897 193.738 63.3406 193.738 64.0566V64.7926H186.688V65.2582C186.688 65.6838 186.753 66.0843 186.878 66.4598C187.018 66.8203 187.209 67.1358 187.449 67.4111C187.704 67.6815 188.005 67.8968 188.36 68.052C188.726 68.2072 189.141 68.2873 189.597 68.2873C190.218 68.2873 190.753 68.1421 191.209 67.8417C191.68 67.5413 192.04 67.1158 192.291 66.565L193.372 67.3611C193.057 68.042 192.561 68.6027 191.89 69.0233C191.219 69.4389 190.423 69.6441 189.497 69.6441ZM189.497 60.4818C189.081 60.4818 188.701 60.5568 188.355 60.712C188.015 60.8522 187.714 61.0625 187.464 61.3329C187.224 61.6032 187.033 61.9287 186.893 62.2992C186.753 62.6597 186.683 63.0652 186.683 63.5058V63.641H192.095V63.4308C192.095 62.5345 191.855 61.8286 191.374 61.2979C190.904 60.7521 190.278 60.4868 189.492 60.4868L189.497 60.4818Z" fill="#EDAF4E"/>
<path d="M196.236 69.4088V59.4103H197.753V61.0375H197.828C198.068 60.4667 198.404 60.0161 198.834 59.6807C199.275 59.3452 199.866 59.175 200.602 59.175C201.613 59.175 202.414 59.5104 202.995 60.1814C203.591 60.8423 203.886 61.7785 203.886 62.9902V69.4038H202.369V63.2655C202.369 61.4681 201.628 60.5718 200.146 60.5718C199.841 60.5718 199.545 60.6119 199.255 60.687C198.975 60.7671 198.724 60.8823 198.494 61.0375C198.264 61.1927 198.083 61.393 197.943 61.6383C197.818 61.8736 197.753 62.149 197.753 62.4694V69.4038H196.236V69.4088Z" fill="#EDAF4E"/>
<path d="M209.199 69.4088C208.668 69.4088 208.262 69.2636 207.982 68.9632C207.717 68.6528 207.586 68.2573 207.586 67.7616V60.7671H205.969V59.4103H206.88C207.211 59.4103 207.431 59.3452 207.546 59.215C207.672 59.0749 207.737 58.8345 207.737 58.499V56.6365H209.103V59.4103H211.251V60.7671H209.103V68.052H211.096V69.4088H209.199Z" fill="#EDAF4E"/>
<path d="M23.4717 23.6669H24.9888C25.5996 23.6669 26.1053 23.5868 26.5058 23.4216C26.9064 23.2413 27.2518 22.9609 27.5422 22.5854L37.1452 10.1335C37.5458 9.60782 37.9613 9.24237 38.3969 9.05211C38.8475 8.83682 39.4083 8.72666 40.0792 8.72666L44.335 9.05211L33.9409 23.5467C33.2499 24.453 32.539 25.0938 31.798 25.4743C32.3287 25.6746 32.7993 25.95 33.2199 26.3105C33.6555 26.656 34.0611 27.1166 34.4466 27.6924L46.528 44.385H40.8252C40.0542 44.385 39.4784 44.2748 39.0929 44.0645C38.7224 43.8292 38.412 43.5038 38.1566 43.0732L28.3133 29.9053C28.0078 29.4597 27.6574 29.1493 27.2568 28.9691C26.8563 28.7888 26.2805 28.6987 25.5245 28.6987H23.4767V44.38H17.0029V8.72165H23.4767V23.6669H23.4717Z" fill="black"/>
<path d="M63.1701 28.8239C63.1701 28.0328 63.06 27.2918 62.8347 26.6059C62.6244 25.8999 62.304 25.2791 61.8734 24.7534C61.4378 24.2277 60.887 23.8171 60.2111 23.5217C59.5552 23.2062 58.7842 23.051 57.903 23.051C56.1857 23.051 54.8288 23.5517 53.8375 24.5581C52.8612 25.5595 52.2353 26.9814 51.9599 28.8239H63.1751H63.1701ZM51.8398 32.4938C51.9349 33.7956 52.1602 34.9221 52.5157 35.8734C52.8662 36.8097 53.3318 37.5908 53.9126 38.2116C54.4884 38.8224 55.1693 39.2831 55.9553 39.5935C56.7564 39.8939 57.6376 40.039 58.6039 40.039C59.5703 40.039 60.3914 39.9239 61.0823 39.6936C61.7883 39.4633 62.3991 39.2079 62.9098 38.9275C63.4405 38.6472 63.8961 38.3918 64.2816 38.1615C64.6822 37.9312 65.0677 37.8161 65.4382 37.8161C65.9339 37.8161 66.3044 38.0063 66.5447 38.3818L68.252 40.5998C67.5961 41.3909 66.8551 42.0568 66.039 42.5976C65.2229 43.1233 64.3617 43.5538 63.4655 43.8793C62.5843 44.1897 61.6781 44.41 60.7468 44.5451C59.8306 44.6753 58.9394 44.7454 58.0732 44.7454C56.3559 44.7454 54.7587 44.455 53.2867 43.8843C51.8097 43.2935 50.528 42.4273 49.4365 41.2957C48.345 40.1492 47.4889 38.7323 46.863 37.055C46.2372 35.3627 45.9268 33.4051 45.9268 31.1871C45.9268 29.4597 46.2021 27.8425 46.7429 26.3305C47.2886 24.8034 48.0647 23.4766 49.076 22.3601C50.1024 21.2286 51.3441 20.3324 52.8061 19.6765C54.2831 19.0206 55.9403 18.6902 57.7878 18.6902C59.3449 18.6902 60.7819 18.9455 62.0937 19.4561C63.4105 19.9668 64.542 20.7178 65.4883 21.6992C66.4346 22.6705 67.1706 23.8722 67.7013 25.2991C68.247 26.711 68.5174 28.3282 68.5174 30.1556C68.5174 31.0769 68.4222 31.7027 68.227 32.0282C68.0367 32.3386 67.6662 32.4938 67.1205 32.4938H51.8398Z" fill="black"/>
<path d="M94.6234 19.0806L84.8301 44.3799H79.4378L69.6445 19.0806H74.5512C75.0018 19.0806 75.3673 19.1908 75.6577 19.4011C75.9631 19.6164 76.1634 19.8867 76.2585 20.2172L81.025 33.7305C81.2803 34.5216 81.5056 35.2926 81.7009 36.0486C81.8911 36.8047 82.0614 37.5607 82.2066 38.3167C82.3668 37.5607 82.542 36.8047 82.7373 36.0486C82.9275 35.2926 83.1629 34.5216 83.4332 33.7305L88.2948 20.2172C88.405 19.8867 88.6102 19.6164 88.8956 19.4011C89.186 19.1908 89.5315 19.0806 89.932 19.0806H94.6234Z" fill="black"/>
<path d="M120.218 19.0806L106.764 51.3344C106.589 51.7599 106.354 52.0854 106.069 52.2957C105.793 52.526 105.373 52.6411 104.792 52.6411H100.366L104.987 42.4823L94.9985 19.0806H100.221C100.686 19.0806 101.047 19.1908 101.302 19.4261C101.577 19.6564 101.778 19.9168 101.903 20.2172L107.15 33.335C107.325 33.7756 107.47 34.2211 107.586 34.6668C107.716 35.1124 107.836 35.563 107.946 36.0236C108.091 35.563 108.236 35.1124 108.382 34.6668C108.527 34.2061 108.687 33.7555 108.862 33.3099L113.819 20.2172C113.949 19.8867 114.154 19.6164 114.445 19.4011C114.75 19.1908 115.086 19.0806 115.456 19.0806H120.223H120.218Z" fill="black"/>
<path d="M140.1 24.4329C139.925 24.6632 139.75 24.8435 139.57 24.9787C139.409 25.1088 139.169 25.1739 138.849 25.1739C138.528 25.1739 138.248 25.0838 137.957 24.9086C137.667 24.7083 137.322 24.493 136.921 24.2627C136.521 24.0173 136.04 23.8021 135.479 23.6218C134.933 23.4216 134.252 23.3214 133.431 23.3214C132.39 23.3214 131.474 23.5217 130.688 23.9122C129.902 24.2927 129.246 24.8385 128.715 25.5645C128.204 26.2855 127.819 27.1667 127.558 28.2031C127.303 29.2244 127.173 30.381 127.173 31.6777C127.173 32.9745 127.308 34.2262 127.583 35.2776C127.874 36.329 128.279 37.2152 128.81 37.9362C129.341 38.6422 129.982 39.1879 130.733 39.5634C131.489 39.9239 132.335 40.1091 133.281 40.1091C134.227 40.1091 134.988 39.994 135.569 39.7637C136.165 39.5184 136.661 39.253 137.061 38.9726C137.462 38.6772 137.807 38.4169 138.098 38.1866C138.403 37.9362 138.739 37.8161 139.109 37.8161C139.59 37.8161 139.95 38.0063 140.19 38.3818L141.898 40.5998C141.242 41.3909 140.526 42.0568 139.755 42.5976C138.984 43.1233 138.183 43.5538 137.347 43.8793C136.531 44.1897 135.679 44.41 134.798 44.5452C133.932 44.6753 133.066 44.7454 132.2 44.7454C130.678 44.7454 129.241 44.4551 127.894 43.8843C126.547 43.2935 125.365 42.4373 124.354 41.3208C123.343 40.2043 122.542 38.8374 121.946 37.2252C121.37 35.598 121.08 33.7505 121.08 31.6777C121.08 29.8202 121.335 28.1029 121.851 26.5207C122.381 24.9286 123.152 23.5517 124.159 22.4052C125.17 21.2336 126.422 20.3224 127.914 19.6665C129.406 19.0106 131.123 18.6801 133.061 18.6801C134.998 18.6801 136.516 18.9855 137.897 19.5964C139.294 20.2072 140.546 21.0734 141.652 22.2099L140.09 24.4279L140.1 24.4329Z" fill="black"/>
<path d="M151.576 21.7943C152.537 20.8731 153.598 20.1271 154.75 19.5513C155.906 18.9755 157.258 18.6902 158.815 18.6902C160.162 18.6902 161.359 18.9305 162.4 19.4061C163.442 19.8667 164.308 20.5226 164.999 21.3788C165.705 22.2149 166.235 23.2263 166.586 24.4079C166.956 25.5795 167.142 26.8662 167.142 28.2831V44.385H161.199V28.2831C161.199 26.736 160.853 25.5444 160.162 24.7083C159.471 23.8521 158.42 23.4266 157.008 23.4266C155.981 23.4266 155.02 23.6618 154.119 24.1425C153.223 24.6181 152.372 25.264 151.57 26.0901V44.385H145.627V7.74026H151.57V21.7943H151.576Z" fill="black"/>
<path d="M203.966 15.2054C203.776 15.5509 203.566 15.8063 203.34 15.9715C203.135 16.1217 202.865 16.1968 202.549 16.1968C202.209 16.1968 201.843 16.0716 201.443 15.8263C201.057 15.5609 200.592 15.2755 200.046 14.9651C199.5 14.6547 198.859 14.3743 198.123 14.129C197.402 13.8636 196.541 13.7385 195.55 13.7385C194.654 13.7385 193.868 13.8486 193.192 14.0839C192.516 14.2942 191.95 14.5996 191.484 14.9952C191.034 15.3857 190.698 15.8664 190.473 16.4221C190.248 16.9678 190.138 17.5686 190.138 18.2245C190.138 19.0607 190.363 19.7616 190.814 20.3174C191.279 20.8782 191.89 21.3538 192.641 21.7493C193.397 22.1399 194.253 22.4953 195.214 22.8058C196.176 23.1162 197.162 23.4516 198.173 23.8171C199.185 24.1626 200.171 24.5731 201.132 25.0538C202.094 25.5094 202.95 26.1052 203.706 26.8262C204.457 27.5322 205.063 28.4033 205.508 29.4397C205.974 30.4762 206.209 31.7328 206.209 33.2148C206.209 34.827 205.934 36.3391 205.388 37.751C204.858 39.1479 204.071 40.3745 203.03 41.426C202.004 42.4624 200.742 43.2835 199.25 43.8893C197.758 44.4801 196.051 44.7755 194.123 44.7755C193.016 44.7755 191.925 44.6654 190.849 44.43C189.772 44.2197 188.741 43.9093 187.744 43.4938C186.768 43.0832 185.842 42.5926 184.976 42.0168C184.109 41.436 183.338 40.8002 182.667 40.0892L184.57 36.9098C184.73 36.6745 184.941 36.4893 185.196 36.3391C185.451 36.1739 185.727 36.0937 186.012 36.0937C186.413 36.0937 186.848 36.269 187.314 36.6144C187.779 36.9449 188.33 37.3154 188.976 37.7259C189.617 38.1365 190.363 38.517 191.214 38.8625C192.08 39.1929 193.117 39.3531 194.318 39.3531C196.161 39.3531 197.593 38.9076 198.599 38.0214C199.61 37.1152 200.116 35.8234 200.116 34.1461C200.116 33.2099 199.886 32.4438 199.42 31.853C198.97 31.2622 198.369 30.7715 197.613 30.371C196.857 29.9604 196.001 29.6149 195.039 29.3346C194.078 29.0592 193.097 28.7538 192.105 28.4234C191.109 28.0929 190.133 27.7024 189.171 27.2418C188.21 26.7811 187.349 26.1853 186.598 25.4393C185.842 24.7033 185.236 23.7821 184.77 22.6806C184.32 21.5641 184.094 20.1872 184.094 18.56C184.094 17.2582 184.345 15.9965 184.84 14.7598C185.356 13.5281 186.092 12.4367 187.053 11.4804C188.015 10.5241 189.201 9.76304 190.613 9.18726C192.025 8.61148 193.647 8.32611 195.475 8.32611C197.528 8.32611 199.42 8.65654 201.153 9.31243C202.885 9.97333 204.362 10.8946 205.579 12.0762L203.966 15.2054Z" fill="black"/>
<path d="M221.745 18.6851C223.573 18.6851 225.235 18.9905 226.727 19.6013C228.234 20.2122 229.516 21.0683 230.577 22.1899C231.649 23.3064 232.48 24.6732 233.056 26.2854C233.631 27.8976 233.922 29.695 233.922 31.6877C233.922 33.6804 233.636 35.5029 233.056 37.1101C232.48 38.7222 231.649 40.0941 230.577 41.2306C229.516 42.3672 228.234 43.2334 226.727 43.8442C225.235 44.455 223.573 44.7604 221.745 44.7604C219.918 44.7604 218.225 44.455 216.713 43.8442C215.206 43.2334 213.915 42.3672 212.838 41.2306C211.777 40.0941 210.956 38.7222 210.36 37.1101C209.784 35.4979 209.494 33.6904 209.494 31.6877C209.494 29.685 209.784 27.8976 210.36 26.2854C210.956 24.6732 211.777 23.3114 212.838 22.1899C213.915 21.0734 215.206 20.2122 216.713 19.6013C218.22 18.9905 219.898 18.6851 221.745 18.6851ZM221.745 40.0691C223.798 40.0691 225.315 39.3631 226.291 37.9462C227.288 36.5343 227.783 34.4615 227.783 31.7328C227.783 29.0041 227.288 26.9263 226.291 25.4993C225.315 24.0674 223.798 23.3514 221.745 23.3514C219.692 23.3514 218.11 24.0724 217.104 25.5193C216.108 26.9513 215.612 29.0191 215.612 31.7328C215.612 34.4464 216.108 36.5193 217.104 37.9462C218.115 39.3631 219.662 40.0691 221.745 40.0691Z" fill="black"/>
<path d="M244.471 7.73532V44.38H238.528V7.73532H244.471Z" fill="black"/>
<path d="M271.663 19.0806V44.3799H268.028C267.242 44.3799 266.746 44.0094 266.536 43.2684L266.126 41.2457C265.114 42.2971 264.003 43.1483 262.781 43.8092C261.559 44.45 260.122 44.7655 258.475 44.7655C257.128 44.7655 255.932 44.5352 254.89 44.0745C253.864 43.5989 252.998 42.933 252.292 42.0818C251.586 41.2257 251.05 40.2143 250.68 39.0477C250.324 37.8661 250.149 36.5693 250.149 35.1524V19.0756H256.092V35.1524C256.092 36.6995 256.437 37.9012 257.128 38.7523C257.834 39.5884 258.886 40.009 260.283 40.009C261.309 40.009 262.27 39.7787 263.172 39.3181C264.073 38.8424 264.919 38.1915 265.72 37.3704V19.0756H271.663V19.0806Z" fill="black"/>
<path d="M302.46 44.38H296.517V23.6418H285.061V37.3504C285.061 38.1415 285.247 38.7574 285.617 39.203C286.003 39.6436 286.523 39.8688 287.184 39.8688C287.55 39.8688 287.86 39.8238 288.095 39.7437C288.351 39.6435 288.571 39.5484 288.746 39.4483C288.942 39.3482 289.107 39.258 289.252 39.1779C289.397 39.0778 289.542 39.0327 289.688 39.0327C289.863 39.0327 290.008 39.0778 290.118 39.1779C290.233 39.258 290.354 39.3882 290.479 39.5684L292.261 42.5325C291.395 43.2685 290.399 43.8292 289.277 44.2097C288.156 44.5903 286.989 44.7755 285.787 44.7755C283.634 44.7755 281.987 44.1647 280.831 42.928C279.689 41.6813 279.123 39.959 279.123 37.771V23.6418H276.595C276.274 23.6418 275.999 23.5367 275.779 23.3215C275.554 23.1112 275.443 22.7857 275.443 22.3601V19.9468L279.414 19.2559L280.665 12.3766C280.746 12.0461 280.896 11.7908 281.121 11.6056C281.346 11.4303 281.637 11.3402 281.987 11.3402H285.066V19.301H302.465V44.38H302.46ZM303.496 11.6056C303.496 12.1313 303.391 12.632 303.186 13.1126C302.981 13.5682 302.695 13.9737 302.345 14.3192C302.009 14.6647 301.599 14.9401 301.118 15.1554C300.653 15.3556 300.157 15.4507 299.626 15.4507C299.095 15.4507 298.635 15.3556 298.184 15.1554C297.734 14.9401 297.343 14.6647 297.003 14.3192C296.667 13.9737 296.392 13.5682 296.186 13.1126C295.996 12.632 295.896 12.1313 295.896 11.6056C295.896 11.0798 295.996 10.5641 296.186 10.1035C296.397 9.62788 296.667 9.21728 297.003 8.87181C297.338 8.51132 297.734 8.22597 298.184 8.03071C298.635 7.82042 299.115 7.71027 299.626 7.71027C300.137 7.71027 300.653 7.82042 301.118 8.03071C301.599 8.23098 302.009 8.51132 302.345 8.87181C302.695 9.21728 302.981 9.62788 303.186 10.1035C303.396 10.5641 303.496 11.0648 303.496 11.6056Z" fill="black"/>
<path d="M319.453 18.6851C321.28 18.6851 322.942 18.9905 324.435 19.6013C325.942 20.2122 327.223 21.0683 328.285 22.1899C329.356 23.3064 330.187 24.6732 330.763 26.2854C331.339 27.8976 331.629 29.695 331.629 31.6877C331.629 33.6804 331.339 35.5029 330.763 37.1101C330.187 38.7222 329.361 40.0941 328.285 41.2306C327.223 42.3672 325.942 43.2334 324.435 43.8442C322.942 44.455 321.28 44.7604 319.453 44.7604C317.625 44.7604 315.928 44.455 314.421 43.8442C312.914 43.2334 311.622 42.3672 310.546 41.2306C309.484 40.0941 308.663 38.7222 308.067 37.1101C307.492 35.4979 307.201 33.6904 307.201 31.6877C307.201 29.685 307.487 27.8976 308.067 26.2854C308.663 24.6732 309.484 23.3114 310.546 22.1899C311.617 21.0734 312.909 20.2122 314.421 19.6013C315.928 18.9905 317.605 18.6851 319.453 18.6851ZM319.453 40.0691C321.506 40.0691 323.023 39.3631 323.999 37.9462C324.99 36.5343 325.491 34.4615 325.491 31.7328C325.491 29.0041 324.995 26.9263 323.999 25.4993C323.018 24.0674 321.506 23.3514 319.453 23.3514C317.4 23.3514 315.818 24.0724 314.806 25.5193C313.815 26.9513 313.314 29.0191 313.314 31.7328C313.314 34.4464 313.81 36.5193 314.806 37.9462C315.818 39.3631 317.365 40.0691 319.453 40.0691Z" fill="black"/>
<path d="M341.718 22.1849C342.214 21.6742 342.74 21.2085 343.28 20.7829C343.841 20.3373 344.427 19.9668 345.038 19.6714C345.664 19.361 346.329 19.1207 347.035 18.9554C347.741 18.7752 348.512 18.6851 349.349 18.6851C350.695 18.6851 351.892 18.9254 352.933 19.4011C353.975 19.8617 354.841 20.5176 355.532 21.3738C356.238 22.2099 356.769 23.2212 357.119 24.4028C357.49 25.5744 357.675 26.8612 357.675 28.2781V44.3799H351.732V28.2781C351.732 26.731 351.386 25.5394 350.695 24.7032C350.004 23.8471 348.953 23.4215 347.541 23.4215C346.515 23.4215 345.553 23.6568 344.652 24.1375C343.751 24.6131 342.905 25.259 342.104 26.0851V44.3799H336.161V19.0806H339.796C340.567 19.0806 341.072 19.4462 341.313 20.1922L341.723 22.1849H341.718Z" fill="black"/>
<path d="M378.388 24.0123C378.228 24.2777 378.062 24.4679 377.882 24.5781C377.702 24.6782 377.482 24.7283 377.206 24.7283C376.921 24.7283 376.605 24.6482 376.27 24.478C375.95 24.3127 375.574 24.1375 375.138 23.9373C374.708 23.722 374.207 23.5367 373.646 23.3665C373.101 23.2012 372.45 23.1211 371.699 23.1211C370.527 23.1211 369.606 23.3764 368.93 23.8871C368.274 24.3978 367.944 25.0638 367.944 25.8849C367.944 26.4306 368.109 26.8862 368.449 27.2667C368.8 27.6272 369.26 27.9477 369.821 28.223C370.397 28.5034 371.048 28.7588 371.769 28.9891C372.49 29.2044 373.221 29.4447 373.957 29.7051C374.713 29.9704 375.449 30.2708 376.17 30.6163C376.891 30.9467 377.532 31.3723 378.092 31.898C378.668 32.4087 379.124 33.0246 379.464 33.7505C379.82 34.4715 379.995 35.3427 379.995 36.3641C379.995 37.5807 379.78 38.7072 379.344 39.7386C378.929 40.76 378.303 41.6463 377.467 42.4023C376.63 43.1383 375.599 43.7291 374.362 44.1547C373.141 44.5652 371.734 44.7655 370.127 44.7655C369.276 44.7655 368.444 44.6854 367.623 44.5201C366.822 44.3749 366.046 44.1596 365.29 43.8793C364.554 43.5989 363.863 43.2684 363.222 42.8879C362.596 42.5124 362.041 42.1019 361.56 41.6563L362.932 39.3381C363.107 39.0578 363.317 38.8475 363.558 38.6972C363.798 38.547 364.104 38.4719 364.469 38.4719C364.834 38.4719 365.185 38.5821 365.505 38.7923C365.841 39.0076 366.226 39.238 366.662 39.4833C367.098 39.7286 367.598 39.9639 368.179 40.1742C368.775 40.3895 369.521 40.4947 370.417 40.4947C371.123 40.4947 371.724 40.4146 372.225 40.2493C372.735 40.0691 373.156 39.8388 373.476 39.5584C373.812 39.283 374.052 38.9576 374.197 38.6021C374.357 38.2216 374.437 37.8361 374.437 37.4405C374.437 36.8497 374.262 36.3641 373.907 35.9835C373.571 35.608 373.111 35.2776 372.535 34.9972C371.974 34.7168 371.323 34.4715 370.587 34.2612C369.866 34.0259 369.12 33.7806 368.349 33.5202C367.593 33.2549 366.847 32.9544 366.111 32.609C365.39 32.2485 364.739 31.7929 364.164 31.2522C363.603 30.7064 363.142 30.0455 362.792 29.2545C362.456 28.4684 362.286 27.5121 362.286 26.3955C362.286 25.3591 362.486 24.3728 362.887 23.4366C363.287 22.5003 363.873 21.6842 364.644 20.9933C365.43 20.2873 366.402 19.7266 367.553 19.316C368.725 18.8904 370.072 18.6701 371.599 18.6701C373.296 18.6701 374.848 18.9605 376.24 19.5313C377.637 20.112 378.798 20.8631 379.73 21.8044L378.383 23.9973L378.388 24.0123Z" fill="black"/>
<path fill-rule="evenodd" clip-rule="evenodd" d="M43.3337 0.800902C42.6478 0.220115 41.6364 0.320231 41.0707 1.03119L9.21749 41.0655V2.82864C9.21749 1.9124 8.49651 1.1714 7.61031 1.1714H1.60718C0.71597 1.1714 0 1.9124 0 2.82864V67.992C0 68.9032 0.720977 69.6442 1.60718 69.6442H7.61031C8.50152 69.6442 9.21749 68.9032 9.21749 67.992V56.0708L48.1953 7.0794C48.7561 6.37344 48.661 5.32703 47.975 4.74124L43.3337 0.800902Z" fill="#EDAF4E"/>
</g>
</svg>
