<svg width="247" height="100" viewBox="0 0 247 100" fill="none" xmlns="http://www.w3.org/2000/svg">
<path d="M192.17 0.866594V50.2642L191.544 50.7843L190.917 51.3044L190.317 51.8509L189.742 52.3973L189.194 52.9437L188.646 53.5111L188.123 54.0838L187.601 54.6512V0.85614H132.761V45.8299H128.223V0.85614H73.383V45.9087H68.8452V0.85614H14.0051V52.2029L0 98.7634H12.308L18.4907 78.1521H20.2609L30.4801 98.7634H45.3468L35.4356 78.1521H57.9158L51.6861 98.7634H65.1116L71.2682 78.1994H74.2446V78.1469H104.182L98.2339 98.7108H111.795L117.56 78.1469H123.659L123.816 98.7108H135.189L148.249 78.1469H156.803L152.369 98.7108H165.721L170.082 78.1469H177.8L177.747 79.3185L177.774 80.5112L177.826 81.6565L177.93 82.8019L178.009 83.3482L178.087 83.8947L178.191 84.4411L178.296 84.9875L178.421 85.5339L178.552 86.054L178.708 86.5742L178.865 87.0943L179.048 87.6197L179.23 88.1136L179.439 88.6127L179.643 89.0803L179.878 89.5742L180.113 90.0418L180.374 90.4831L180.635 90.9507L180.922 91.3973L181.236 91.8124L181.549 92.2537L181.888 92.6425L182.233 93.0628L182.572 93.4516L182.959 93.8404L183.351 94.2029L183.841 94.6232L184.337 95.0383L184.86 95.4271L185.408 95.7896L185.956 96.1573L186.505 96.4936L187.074 96.7826L187.674 97.0926L188.249 97.3553L188.849 97.618L189.45 97.8544L190.076 98.0908L190.703 98.2957L191.33 98.4796L191.951 98.6582L192.578 98.8159L193.831 99.0996L195.11 99.3097L196.363 99.4884L197.617 99.646L198.839 99.7511L200.04 99.8036L201.215 99.8561H202.332L203.846 99.8299L205.361 99.8089L206.901 99.7301L208.442 99.6512L209.977 99.5199L211.517 99.3885L213.058 99.231L214.598 99.0523L216.16 98.8422L217.726 98.6057L219.287 98.3483L220.849 98.0856L222.415 97.8018L223.977 97.4866L225.543 97.1766L227.131 96.8141L231.773 78.1521H247V0.861335H192.16L192.17 0.866594ZM19.0964 76.2344L19.1747 75.9507L19.3575 76.2344H19.0964ZM66.8714 48.5461L66.0881 51.1731L58.7879 75.378L58.5007 76.2397H34.5114L32.6628 72.2835L58.5059 45.9192H41.8951L21.6864 67.6547L28.2347 45.9192H15.9789V2.82111H66.8818V48.5461H66.8714ZM81.0279 68.9997L80.6414 69.0208L80.2759 69.047L79.8843 69.0681H78.4482L78.0044 69.0944H77.5866L74.3282 69.0681L75.8425 63.4989L76.5475 60.7353L78.2655 54.2572H79.3882L79.9365 54.2309H82.9861L84.5213 54.2572L85.926 54.3097L86.5526 54.3307L87.1531 54.3885L87.7223 54.4673L88.2445 54.5462L88.7145 54.625L89.1583 54.7563L89.5761 54.8877L89.9364 55.0452L90.2497 55.2029L90.5369 55.4131L90.798 55.618L91.0016 55.8807L91.1322 56.0856L91.2366 56.2904L91.3411 56.5269L91.4194 56.7896L91.4716 57.0733L91.4977 57.357V58.0085L91.4716 58.371L91.4507 58.7335L91.3724 59.1539L91.2941 59.5741L91.0591 60.4568L90.7719 61.4446L90.4899 62.2747L90.1766 63.0838L89.8372 63.8351L89.4716 64.5392L89.2889 64.8491L89.1061 65.1643L88.8972 65.4796L88.6622 65.7633L88.4272 66.047L88.1923 66.3097L87.9312 66.5672L87.6701 66.8036L87.3829 67.0137L87.0957 67.2502L86.7876 67.4288L86.4482 67.639L86.1035 67.8176L85.7432 67.9753L85.3777 68.1328L84.9861 68.2642L84.5683 68.4218L84.1244 68.5216L83.6545 68.6267L83.1845 68.7265L82.6623 68.8054L82.1401 68.8842L81.5918 68.9367L81.0174 68.9892L81.0279 68.9997ZM118.114 76.2344L123.461 57.2362L123.664 76.2344H118.114ZM126.249 45.8351H113.524L104.761 76.2344H91.2575L91.8841 75.9717L92.5108 75.7143L93.1113 75.4516L93.7118 75.1679L94.2862 74.8841L94.8345 74.5427L95.3828 74.2274L95.905 73.8859L96.4272 73.5234L96.9233 73.1609L97.3932 72.7983L97.8632 72.3781L98.3071 71.9892L98.7248 71.5479L99.1425 71.1276L99.5342 70.66L99.9258 70.2186L100.291 69.7248L100.631 69.2572L100.97 68.7318L101.284 68.2117L101.571 67.6915L101.858 67.1451L102.119 66.5724L102.38 65.9998L102.615 65.427L102.819 64.8281L103.028 64.2029L103.184 63.5777L103.367 62.9577L103.498 62.2799L103.623 61.6337L103.806 60.5882L103.962 59.6004L104.067 58.6652L104.145 57.7826L104.171 56.8946L104.145 56.0908L104.124 55.2817L104.02 54.5304L103.915 53.8264L103.733 53.1276L103.55 52.4761L103.289 51.8509L103.002 51.2519L102.693 50.653L102.328 50.1066L101.91 49.5865L101.571 49.2186L101.226 48.8562L100.861 48.5409L100.474 48.2572L100.056 47.9735L99.6386 47.7108L99.1948 47.4744L98.7509 47.2695L98.2809 47.0593L97.8162 46.9016L97.3201 46.7441L96.8293 46.5864L96.3071 46.4603L95.7849 46.3553L95.2575 46.2554L94.7144 46.1766L93.5917 46.019L92.4742 45.9402L91.3254 45.8614L90.1505 45.8404H75.3673V2.81585H126.27V45.8351H126.249ZM157.173 76.2344H149.534L161.111 58.019L157.173 76.2344ZM185.622 46.6968L185.596 57.2362L184.948 58.1451L184.348 59.0803L183.747 60.0155L183.199 60.9507L182.677 61.8859L182.155 62.8527L181.711 63.7878L181.267 64.723L180.849 65.632L180.489 66.5672L180.123 67.4814L179.81 68.364L179.523 69.2519L179.262 70.1083L179.027 70.9437L178.818 71.7738L178.687 72.3202L178.557 72.8877L178.426 73.434L178.322 74.0068L178.217 74.5531L178.139 75.0943L178.061 75.6407L178.009 76.2134H170.526L176.917 45.8929L155.377 45.8719L136.103 76.2187H134.698V2.80007H185.627V46.6758L185.622 46.6968ZM214.99 88.6548L213.919 88.8334L212.823 88.991L211.726 89.1486L210.656 89.28L209.585 89.3851L208.515 89.4638L207.476 89.5164H205.752L205.079 89.4954L204.426 89.4429L203.779 89.364L203.152 89.2589L202.551 89.1539L201.951 89.0225L201.382 88.8649L200.833 88.681L200.285 88.5024L199.763 88.266L199.267 88.0295L198.771 87.7458L198.301 87.4569L197.857 87.1469L197.439 86.8369L197.021 86.4691L196.661 86.0803L196.296 85.6915L195.951 85.2502L195.638 84.8088L195.35 84.315L195.089 83.8211L194.828 83.301L194.619 82.7546L194.437 82.1504L194.28 81.5514L194.123 80.9262L194.019 80.28L193.941 79.6022L193.888 78.8982L193.857 78.1679H217.59L214.985 88.66L214.99 88.6548ZM245.078 76.2344H232.248L234.363 67.7493H208.651L206.541 76.2344H194.102V74.4901L194.259 73.7598L194.39 73.0348L194.546 72.2519L194.703 71.4691L194.938 70.6074L195.173 69.7458L195.434 68.8842L195.721 68.054L196.035 67.2239L196.374 66.3938L196.739 65.5847L197.105 64.7808L197.523 63.9718L197.94 63.2204L198.384 62.4376L198.88 61.7125L199.376 60.9822L199.873 60.2782L200.416 59.6004L200.99 58.9542L201.591 58.329L202.191 57.7563L202.839 57.1889L203.491 56.6425L204.165 56.1486L204.896 55.681L205.627 55.2659L206.379 54.8772L207.162 54.5147L207.972 54.1994L208.802 53.9367L209.664 53.7318L210.551 53.5479L211.46 53.4218L212.4 53.343L213.366 53.3167L214.123 53.343L214.875 53.3956L215.632 53.5006L216.358 53.6583L216.724 53.7581L217.068 53.8631L217.408 53.9682L217.716 54.1258L218.029 54.2572L218.337 54.4358L218.624 54.6197L218.912 54.8036L219.173 55.0401L219.434 55.2765L219.669 55.5129L219.904 55.7966L220.107 56.054L220.29 56.3693L220.452 56.7108L220.609 57.0523L220.734 57.4148L220.838 57.8036L220.917 58.1924L220.995 58.6337L221.021 59.075V60.0418L220.969 60.5619H236.3L236.535 59.4954L236.744 58.2712L236.849 57.6197L236.901 56.9157L236.953 56.2117V55.4866L236.927 54.7353L236.849 53.9524L236.77 53.59L236.718 53.2012L236.614 52.8123L236.509 52.4235L236.379 52.0033L236.248 51.6145L236.092 51.2257L235.909 50.8421L235.726 50.4533L235.491 50.0645L235.256 49.6757L234.995 49.2869L234.682 48.8667L234.337 48.4778L233.998 48.089L233.632 47.7265L233.246 47.364L232.828 47.0225L232.41 46.7072L231.966 46.392L231.496 46.0821L231.026 45.8246L230.535 45.5619L230.013 45.3045L229.491 45.068L228.943 44.8316L228.368 44.6214L227.799 44.4165L227.225 44.2327L226.598 44.075L225.998 43.9174L225.345 43.7598L224.697 43.6284L224.045 43.5023L223.366 43.3973L222.661 43.3185L221.225 43.1608L219.768 43.0295L218.227 42.977L216.666 42.9507L215.491 42.977L214.269 42.998L212.99 43.0768L211.658 43.1819L210.275 43.3343L208.87 43.5181L207.434 43.7545L205.977 44.0698L205.246 44.2274L204.489 44.4113L203.758 44.6162L203.006 44.8211L202.248 45.0576L201.497 45.3203L200.739 45.5777L200.014 45.8666L199.256 46.1819L198.504 46.5181L197.773 46.8596L197.016 47.2222L196.285 47.611L195.559 48.0312L194.828 48.4463L194.097 48.9139V2.84734H245.078V76.2659V76.2344Z" fill="#263B80"/>
</svg>
