<svg width="247" height="60" viewBox="0 0 247 60" fill="none" xmlns="http://www.w3.org/2000/svg">
<path d="M0 58.9137H39.16V46.1262H16.1018V1.77432H0V58.9137ZM85.9939 23.4942H64.4499V14.2577H87.3195V1.78033H48.3298V58.9198H88.5722V46.3816H64.4499V35.8621H85.9939V23.4942ZM126.06 59.8561C144.479 59.8561 156.044 48.1632 156.044 29.7633C156.044 14.507 146.26 0.85614 126.954 0.85614C107.647 0.85614 97.14 14.0814 97.14 30.6997C97.14 47.318 107.38 59.8561 125.981 59.8561H126.06ZM126.626 47.7193C118.812 47.7193 114.117 40.5138 114.117 30.3531C114.117 20.1925 118.806 12.9869 126.626 12.9869C134.445 12.9869 138.994 20.4418 138.994 30.2741C138.994 40.605 134.458 47.7375 126.626 47.7375V47.7193ZM180.215 58.9137V44.8432C180.215 35.6067 180.045 26.9602 179.589 19.25H179.948C182.982 26.3095 186.363 33.211 190.096 39.9301L200.245 58.9259H217.162V1.77432H202.483V15.2671C202.428 23.3118 202.848 31.3503 203.735 39.3402H203.468C200.707 32.5117 197.576 25.8352 194.085 19.3472L184.472 1.77432H165.542V58.9137H180.221H180.215ZM230.898 1.78033V58.9198H247V1.78033H230.898Z" fill="#182C56"/>
</svg>
