<svg width="157" height="118" viewBox="0 0 157 118" fill="none" xmlns="http://www.w3.org/2000/svg">
<g opacity="0.7">
<path d="M35.4254 13.3046L26.3394 29.0709L44.174 39.3857L53.2557 34.1288V23.6194L35.4254 13.3046Z" fill="#7BA661"/>
<path d="M90.8366 39.3814L108.667 29.0666L99.5851 13.3002L81.7549 23.615V34.1244L90.8366 39.377V39.3814Z" fill="#7BA661"/>
<path d="M76.5891 64.1039L67.5031 58.8513L58.4214 64.1083V84.7378H76.5891V64.1083V64.1039Z" fill="#7BA661"/>
</g>
<path d="M66.2136 53.6247L35.4293 71.4333L26.3433 55.6669L57.1319 37.8584L58.4212 37.1142V0H76.5933V37.1142L77.8826 37.8627L108.671 55.6713L99.5851 71.4377L68.8009 53.6291L67.5073 52.8806L66.2136 53.6291V53.6247Z" fill="#7BA661"/>
<path d="M0.919922 117.222V102.529H3.00974V115.397H10.9276V117.222H0.919922ZM15.834 117.222V102.529H17.9238V117.222H15.834ZM26.6896 109.478H34.2353V111.282H26.6896V109.478ZM26.8973 117.222H24.8119V102.529H35.1353V104.355H26.8973V117.222ZM42.4863 108.868H50.0104V110.65H42.4863V108.868ZM42.6723 115.397H51.2002V117.222H40.5869V102.529H50.9103V104.355H42.6723V115.397ZM61.3592 117.391C60.243 117.391 59.1785 117.222 58.1618 116.889C57.1407 116.539 56.3446 116.093 55.7561 115.548L56.5306 113.908C57.0844 114.397 57.7941 114.804 58.6594 115.124C59.5291 115.444 60.4204 115.609 61.3592 115.609C62.2073 115.609 62.8952 115.509 63.4274 115.314C63.9596 115.12 64.3446 114.851 64.5999 114.518C64.8509 114.168 64.972 113.774 64.972 113.341C64.972 112.84 64.8076 112.433 64.4701 112.126C64.1499 111.818 63.7259 111.572 63.1981 111.39C62.6832 111.195 62.1121 111.027 61.4847 110.888C60.8574 110.75 60.2256 110.585 59.5853 110.404C58.9579 110.209 58.3825 109.962 57.8503 109.668C57.3354 109.374 56.9201 108.984 56.5956 108.491C56.2754 107.989 56.1153 107.345 56.1153 106.562C56.1153 105.778 56.31 105.112 56.6994 104.485C57.1018 103.84 57.7162 103.33 58.5339 102.953C59.369 102.559 60.4289 102.365 61.714 102.365C62.562 102.365 63.4014 102.477 64.2408 102.702C65.0758 102.927 65.7984 103.247 66.4128 103.667L65.7205 105.346C65.0931 104.926 64.4312 104.623 63.7346 104.441C63.038 104.247 62.363 104.147 61.7096 104.147C60.8832 104.147 60.2083 104.251 59.6804 104.463C59.1526 104.675 58.7632 104.952 58.5123 105.302C58.2743 105.653 58.1575 106.047 58.1575 106.479C58.1575 106.999 58.3133 107.41 58.6378 107.717C58.9709 108.024 59.3949 108.271 59.9098 108.452C60.442 108.634 61.0174 108.803 61.6448 108.954C62.2721 109.093 62.8995 109.257 63.5269 109.439C64.1673 109.621 64.747 109.858 65.2576 110.153C65.7898 110.447 66.2138 110.836 66.5339 111.33C66.8541 111.818 67.0141 112.45 67.0141 113.22C67.0141 113.99 66.8108 114.657 66.4084 115.297C66.0017 115.929 65.3743 116.439 64.5263 116.829C63.6912 117.205 62.6313 117.396 61.3506 117.396L61.3592 117.391ZM70.363 117.222L76.9871 102.529H79.0596L85.7054 117.222H83.5074L77.5973 103.702H78.4323L72.5177 117.222H70.3673H70.363ZM73.184 113.549L73.7508 111.87H81.9845L82.5901 113.549H73.184ZM93.8395 117.222L87.4015 102.529H89.66L95.5745 116.089H94.2765L100.234 102.529H102.324L95.9033 117.222H93.8352H93.8395ZM108.598 108.868H116.126V110.65H108.598V108.868ZM108.788 115.397H117.316V117.222H106.698V102.529H117.022V104.355H108.788V115.397ZM123.209 117.222V102.529H128.911C130.197 102.529 131.287 102.732 132.191 103.139C133.095 103.546 133.792 104.134 134.281 104.904C134.766 105.675 135.008 106.592 135.008 107.656C135.008 108.721 134.761 109.638 134.281 110.408C133.792 111.165 133.095 111.745 132.191 112.152C131.287 112.558 130.192 112.762 128.911 112.762H124.355L125.294 111.797V117.235H123.209V117.222ZM132.987 117.222L129.266 111.892H131.499L135.263 117.222H132.983H132.987ZM125.294 111.996L124.355 110.966H128.847C130.184 110.966 131.196 110.681 131.88 110.105C132.576 109.517 132.922 108.699 132.922 107.648C132.922 106.596 132.576 105.787 131.88 105.212C131.196 104.636 130.188 104.351 128.847 104.351H124.355L125.294 103.299V111.992V111.996Z" fill="#1C2419"/>
<path d="M140.749 106.168C140.243 106.168 139.758 106.09 139.295 105.938C138.828 105.778 138.469 105.575 138.201 105.328L138.551 104.584C138.806 104.805 139.127 104.991 139.52 105.138C139.914 105.285 140.325 105.359 140.749 105.359C141.134 105.359 141.446 105.315 141.684 105.225C141.922 105.138 142.103 105.017 142.22 104.861C142.333 104.701 142.389 104.524 142.389 104.325C142.389 104.095 142.311 103.909 142.16 103.771C142.017 103.632 141.822 103.52 141.584 103.438C141.351 103.347 141.091 103.273 140.805 103.208C140.52 103.143 140.234 103.07 139.944 102.988C139.659 102.897 139.395 102.789 139.157 102.655C138.923 102.52 138.733 102.343 138.586 102.118C138.443 101.889 138.369 101.595 138.369 101.24C138.369 100.885 138.456 100.582 138.633 100.297C138.819 100.002 139.101 99.773 139.473 99.5999C139.849 99.4225 140.329 99.3317 140.918 99.3317C141.303 99.3317 141.684 99.3836 142.069 99.4831C142.445 99.5826 142.774 99.7297 143.055 99.9201L142.739 100.682C142.454 100.491 142.155 100.353 141.835 100.271C141.519 100.18 141.212 100.136 140.918 100.136C140.546 100.136 140.234 100.184 139.996 100.279C139.758 100.374 139.577 100.5 139.464 100.66C139.352 100.82 139.304 100.997 139.304 101.196C139.304 101.43 139.373 101.62 139.52 101.759C139.672 101.897 139.867 102.01 140.1 102.092C140.338 102.174 140.602 102.252 140.883 102.321C141.169 102.386 141.454 102.46 141.74 102.542C142.03 102.624 142.294 102.732 142.523 102.867C142.77 103.001 142.956 103.178 143.103 103.403C143.25 103.628 143.319 103.914 143.319 104.264C143.319 104.615 143.228 104.917 143.047 105.207C142.86 105.493 142.575 105.726 142.19 105.904C141.813 106.077 141.333 106.163 140.749 106.163V106.168ZM145.846 106.09V99.4095H146.798V106.09H145.846ZM149.926 106.09V99.4095H150.705L153.686 104.459H153.271L156.213 99.4095H156.991L157 106.09H156.087L156.079 100.85H156.299L153.673 105.277H153.24L150.601 100.85H150.835V106.09H149.922H149.926Z" fill="#1C2419"/>
</svg>
