<svg width="157" height="119" viewBox="0 0 157 119" fill="none" xmlns="http://www.w3.org/2000/svg">
<mask id="mask0_3178_29090" style="mask-type:luminance" maskUnits="userSpaceOnUse" x="0" y="0" width="157" height="119">
<path d="M157 0.546387H0.919922V119H157V0.546387Z" fill="white"/>
</mask>
<g mask="url(#mask0_3178_29090)">
<path d="M157 51.4071H100.23V36.8768H157V51.4071Z" fill="#E669A2"/>
<path d="M149.628 51.4072H100.23V15.0674H149.628V51.4072Z" fill="#F2BE23"/>
<path d="M129.217 51.4071H100.23V0.546387H129.217V51.4071Z" fill="#EF9C33"/>
<path d="M134.921 51.4071H100.23V6.2182H134.921V51.4071Z" fill="#F2BC87"/>
<path d="M100.222 6.23212V51.4071H129.213V6.23212H100.222Z" fill="#E27225"/>
<path d="M71.1606 51.4071H100.226V58.6723H71.1606V51.4071Z" fill="#AB2223"/>
<path d="M100.222 15.0627V51.4071H134.936V15.0627H100.222Z" fill="#E78D24"/>
<path d="M100.222 15.0627V51.4071H129.213V15.0627H100.222Z" fill="#D75827"/>
<path d="M118.356 51.4071H100.23V29.5931H118.356V51.4071Z" fill="#C04627"/>
<path d="M100.222 36.8907V51.4071H149.642V36.8907H100.222Z" fill="#DA5027"/>
<path d="M100.222 36.8907V51.4071H134.936V36.8907H100.222Z" fill="#D03C27"/>
<path d="M100.222 36.8907V51.4071H129.213V36.8907H100.222Z" fill="#C02926"/>
<path d="M100.222 36.8907V51.4071H118.375V36.8907H100.222Z" fill="#AB2223"/>
<path d="M106.548 78.7722C101.601 79.6502 98.9622 83.3896 98.9622 89.8744C98.9622 96.3591 102.483 100.865 107.649 100.865C110.176 100.865 112.373 99.987 116.99 97.6784V103.062C111.384 105.701 108.085 106.36 103.691 106.36C98.7439 106.36 95.2275 105.153 92.4775 102.184C89.6207 99.3274 88.083 95.588 88.083 91.3051C88.083 81.9635 95.116 75.4788 105.34 75.4788C112.043 75.4788 116.772 78.6654 116.772 83.1713C116.772 86.1396 114.57 88.2253 111.384 88.2253C109.735 88.2253 108.415 87.6772 106.548 86.6877" fill="black"/>
<path d="M81.8168 91.3051C86.3226 85.6983 87.9717 83.3896 87.9717 80.6443C87.9717 77.8989 85.7746 75.4788 82.6994 75.4788C80.9389 75.4788 79.2898 76.4682 78.5187 77.3461V88.8849L71.156 98.7746V76.3521H64.1231L52.4682 95.5834V76.3521H48.5151L37.8496 78.7722V81.5222L43.6794 82.0704V105.919H51.042L62.2511 87.4542V105.919H70.4964" fill="black"/>
<path d="M15.5385 102.184H17.1876C23.1242 102.184 26.4222 98.5563 26.4222 91.3051C26.4222 85.2616 23.7838 81.9635 18.8366 81.9635C18.177 81.9635 17.1875 82.075 15.5385 82.4048V102.189V102.184ZM15.5385 115.154L20.3741 116.255V119.005H1.3612V116.255L5.75558 115.154V81.9635H0.919922V79.2135L12.4634 75.6971H15.5385V79.6548C20.9223 76.3567 22.7944 75.8086 25.6512 75.8086C32.0244 75.8086 36.8602 81.7452 36.8602 89.9858C36.8602 99.4389 30.3754 105.924 20.4857 105.924C19.3848 105.924 17.5174 105.812 15.5385 105.705" fill="black"/>
</g>
</svg>
