<svg width="380" height="61" viewBox="0 0 380 61" fill="none" xmlns="http://www.w3.org/2000/svg">
<path d="M124.581 11.2322C132.644 11.2322 134.429 12.4731 137.513 16.0595L157.278 39.2165C157.56 39.5464 157.717 39.6406 158.042 39.6406V11.2375H165.675V49.2061H157.492C152.089 49.2061 149.848 48.7767 146.56 44.9129L126.173 21.0019C125.895 20.6616 125.723 20.5726 125.408 20.5726V49.2061H117.775V11.2427H124.586H124.581V11.2322Z" fill="#324398"/>
<path d="M86.7642 16.6459H106.084C107.01 16.6459 107.691 16.3736 108.152 15.515L110.408 11.2322H82.8008C70.5181 11.2322 64.5391 15.6877 64.5391 24.8343V35.316C64.5391 45.0595 70.6857 49.2008 82.8061 49.2008H106.764C107.696 49.2008 108.372 48.9233 108.832 48.0699L111.089 43.7872H86.7485C80.3768 43.7872 78.094 41.6144 78.094 37.3317V32.1694H103.324C104.256 32.1694 104.932 31.8919 105.392 31.0385L107.649 26.7558H78.094V23.6092C78.094 19.9862 78.916 16.6459 86.7537 16.6459H86.7642Z" fill="#324398"/>
<path d="M196.492 16.6459H215.822C216.748 16.6459 217.429 16.3736 217.89 15.515L220.146 11.2322H192.544C180.261 11.2322 174.288 15.6877 174.288 24.8343V35.316C174.288 45.0595 180.434 49.2008 192.555 49.2008H216.508C217.434 49.2008 218.115 48.9233 218.576 48.0699L220.837 43.7872H196.492C190.12 43.7872 187.843 41.6144 187.843 37.3317V32.1694H213.073C214 32.1694 214.68 31.8919 215.141 31.0385L217.398 26.7558H187.848V23.6092C187.848 19.9862 188.665 16.6459 196.502 16.6459H196.492Z" fill="#324398"/>
<path d="M251.926 36.3527C257.12 38.0647 258.712 38.7925 258.712 40.7663C258.712 42.4783 257.686 43.782 251.172 43.782H228.822C227.89 43.782 227.214 44.0542 226.754 44.9129L224.497 49.1956H256.146C268.942 49.1956 273.722 45.2008 273.722 39.6459C273.722 36.4312 271.9 32.1747 259.911 28.2427L247.267 24.0961C242.068 22.3841 240.481 21.6249 240.481 19.6511C240.481 18.0804 241.377 16.6302 248.021 16.6302H266.926C267.858 16.6302 268.534 16.3579 268.994 15.4993L271.256 11.2166H243.047C230.251 11.2166 225.471 15.2166 225.471 20.7663C225.471 23.981 227.293 28.2637 239.288 32.1904L251.926 36.337V36.3474V36.3527Z" fill="#324398"/>
<path d="M362.424 49.2061C375.22 49.2061 380 45.2061 380 39.6511C380 36.4365 378.173 32.1799 366.183 28.248L353.545 24.1014C348.34 22.3893 346.754 21.6302 346.754 19.6564C346.754 18.0857 347.78 16.6354 354.293 16.6354H373.204C374.136 16.6354 374.812 16.3632 375.272 15.5045L377.529 11.2218H349.319C336.534 11.2218 331.744 15.2218 331.744 20.7715C331.744 23.9862 333.571 28.2689 345.56 32.1956L358.204 36.3422C363.403 38.0543 364.99 38.7873 364.99 40.7558C364.99 42.3318 363.963 43.7768 357.45 43.7768H331.712L311.806 11.2218H304.257C298.367 11.2218 295.367 12.8501 292.613 17.3317L273.136 49.1956H286.367L302.445 20.782C302.838 20.0962 303.157 20.1066 303.482 20.1066L316.89 43.782H302.319C301.393 43.782 300.712 44.0543 300.251 44.9129L297.995 49.1956H362.429V49.2113L362.424 49.2061Z" fill="#324398"/>
<path d="M20.4501 29.6458H2.69092V47.3997H20.4501V29.6458Z" fill="#324398"/>
<path d="M59.094 10.1276C61.1882 18.2061 54.0887 23.0438 47.2301 26.2532C45.4133 27.1066 44.5181 27.9129 44.4186 28.8867C44.3086 29.9548 44.7484 31.2951 46.1254 33.2951C52.2249 42.1014 64.5757 53.4993 77.5285 60.2427C77.8636 60.4155 77.649 60.5621 77.4762 60.6563C77.1463 60.8291 76.7275 60.9338 75.9526 60.7349C56.5233 55.7244 36.7432 41.3789 30.0154 31.4417C28.9578 29.8815 28.6908 28.7296 28.7903 27.9548C28.9003 27.0647 29.5285 26.2689 31.3505 25.3893C36.0783 23.1328 44.5547 18.1642 42.4971 12.1276C39.539 3.45216 22.7223 3.58828 9.44477 7.59352C6.64372 8.44169 3.58612 9.93383 0.832192 11.5935C0.565177 11.7506 -0.0892774 11.8867 0.010199 11.2427C0.0206702 11.159 0.308632 9.36316 0.308632 9.36316C0.481407 8.46787 1.47092 7.75059 2.16202 7.39981C23.1097 -3.19705 56.0835 -1.49025 59.0992 10.138V10.1276H59.094Z" fill="#324398"/>
</svg>
