<svg width="248" height="74" viewBox="0 0 248 74" fill="none" xmlns="http://www.w3.org/2000/svg">
<mask id="mask0_3179_29454" style="mask-type:luminance" maskUnits="userSpaceOnUse" x="0" y="0" width="248" height="74">
<path d="M247.16 0.85614H0V73.9648H247.16V0.85614Z" fill="white"/>
</mask>
<g mask="url(#mask0_3179_29454)">
<path d="M69.348 10.4952H6.62695V73.1371H69.348V10.4952Z" fill="white"/>
<path d="M6.16439 0.85614C2.77489 0.85614 0 3.62494 0 7.00836V73.1554H16.3633C13.0469 72.4191 10.4302 71.2872 8.93929 70.1493L12.1949 62.3419C15.3714 64.3743 19.765 65.8409 24.5724 65.8409C29.8666 65.8409 34.6679 62.993 34.6679 57.711C34.6679 54.1328 32.3068 51.6926 27.0187 48.8447C20.6717 45.4309 15.8643 41.1225 15.8643 34.5321C15.8643 24.0411 24.9801 17.542 36.0553 17.542C42.165 17.542 46.0717 19.0085 48.2685 20.3047L45.1772 28.1121C43.3881 27.1385 39.7187 25.5928 35.246 25.6719C29.2215 25.6719 25.8016 29.1649 25.8016 32.8282C25.8016 36.4916 28.8929 38.8466 34.0228 41.6884C40.6984 45.1814 44.6903 49.5749 44.6903 56.2444C44.6903 65.0133 38.9702 71.0682 30.4508 73.1554H48.1833L55.6013 33.5585H65.0456L57.7068 73.1554H67.2789C70.6684 73.1554 73.4372 70.3866 73.4372 67.0032V0.862213H6.17048L6.16439 0.85614ZM61.9421 27.8687H61.863C59.0151 27.8687 57.0617 25.8362 57.0617 22.8301C57.0617 19.4954 59.6662 17.1404 62.7576 17.1404C65.8489 17.1404 67.8083 19.1728 67.8083 22.179C67.7292 25.678 65.1187 27.8687 61.9482 27.8687H61.9421Z" fill="#BA2031"/>
<path d="M93.6041 26.7308H79.2793V18.3574H118.103V26.7308H103.614V73.1554H93.598V26.7308H93.6041Z" fill="#231F20"/>
<path d="M127.633 27.8687C124.298 27.8687 122.095 25.4285 122.095 22.5014C122.095 19.4101 124.377 17.0551 127.712 17.0551C131.047 17.0551 133.25 19.4162 133.329 22.5014C133.329 25.4285 131.132 27.8687 127.712 27.8687H127.627H127.633ZM122.667 73.1554V33.5584H132.684V73.1554H122.667Z" fill="#231F20"/>
<path d="M141.227 45.3518C141.227 40.8 141.063 36.9784 140.898 33.5646H149.448L149.935 39.4186H150.179C152.053 36.3273 155.637 32.67 162.392 32.67C167.601 32.67 171.672 35.5971 173.382 39.9906H173.546C174.927 37.7939 176.558 36.1691 178.347 35.0311C180.623 33.4855 183.149 32.67 186.489 32.67C193.001 32.67 199.676 37.1427 199.676 49.8245V73.1615H189.903V51.291C189.903 44.7067 187.621 40.8 182.82 40.8C179.4 40.8 176.875 43.2402 175.816 46.082C175.493 46.9765 175.329 48.2788 175.329 49.4167V73.1555H165.562V50.2261C165.562 44.6946 163.365 40.7939 158.722 40.7939C154.98 40.7939 152.454 43.7209 151.475 46.4045C151.152 47.4634 150.988 48.6013 150.988 49.7393V73.1555H141.221V45.3457L141.227 45.3518Z" fill="#231F20"/>
<path d="M214.908 56.1653C215.152 63.3216 220.768 66.4129 227.121 66.4129C231.764 66.4129 235.02 65.6827 238.111 64.6239L239.578 71.4516C236.158 72.912 231.436 73.9709 225.74 73.9709C212.876 73.9709 205.306 66.0843 205.306 53.9685C205.306 42.9907 211.981 32.6639 224.681 32.6639C237.381 32.6639 241.775 43.2341 241.775 51.9361C241.775 53.8103 241.61 55.2708 241.452 56.1653H214.914H214.908ZM232.33 49.1733C232.41 45.5161 230.785 39.4977 224.109 39.4977C217.92 39.4977 215.316 45.1084 214.908 49.1733H232.33Z" fill="#231F20"/>
<path d="M244.252 33.1203C245.864 33.1203 247.154 34.3921 247.154 35.9682C247.154 37.5443 245.864 38.8526 244.233 38.8526C242.602 38.8526 241.264 37.5808 241.264 35.9682C241.264 34.3556 242.59 33.1203 244.233 33.1203H244.252ZM244.203 33.7836C242.998 33.7836 242.079 34.7512 242.079 35.9865C242.079 37.2218 242.998 38.1893 244.221 38.1893C245.444 38.2076 246.345 37.2035 246.345 35.9865C246.345 34.7694 245.444 33.7836 244.221 33.7836H244.203ZM243.832 37.3983H243.065V34.666C243.284 34.6173 243.692 34.5625 244.203 34.5625C244.781 34.5625 245.037 34.6477 245.219 34.7816C245.389 34.885 245.511 35.0858 245.511 35.3597C245.511 35.6639 245.256 35.9013 244.915 36.0047V36.0412C245.201 36.1447 245.359 36.3638 245.444 36.735C245.529 37.1244 245.578 37.2948 245.633 37.3983H244.817C244.732 37.2948 244.684 37.0575 244.617 36.7715C244.568 36.4855 244.41 36.3637 244.106 36.3637H243.832V37.3983ZM243.844 35.8404H244.118C244.44 35.8404 244.678 35.7187 244.678 35.4692C244.678 35.2319 244.507 35.098 244.148 35.098C244.008 35.098 243.911 35.1163 243.844 35.1163V35.8465V35.8404Z" fill="#231F20"/>
</g>
</svg>
