<svg width="380" height="79" viewBox="0 0 380 79" fill="none" xmlns="http://www.w3.org/2000/svg">
<mask id="mask0_3178_29130" style="mask-type:luminance" maskUnits="userSpaceOnUse" x="0" y="0" width="380" height="79">
<path d="M380 0H0V78.4783H380V0Z" fill="white"/>
</mask>
<g mask="url(#mask0_3178_29130)">
<path d="M78.4731 0H0V78.4783H78.4731V0Z" fill="url(#paint0_linear_3178_29130)"/>
<path d="M76.0463 39.6935C76.0463 56.0655 76.7949 72.8351 76.7949 72.8351C76.7588 74.7144 75.5558 75.9174 74.0378 75.9174H6.1335C4.61556 75.9174 3.55716 74.5647 3.37645 72.8351C3.37645 72.8351 1.4248 58.5076 1.4248 36.6266C1.4248 14.7457 3.37645 4.46603 3.37645 4.46603C3.61395 2.65897 4.60007 1.3837 6.1335 1.3837H74.0585C75.5712 1.3837 76.8517 2.78804 76.8156 4.46603C76.8156 4.46603 76.0669 23.3215 76.0669 39.6883H76.0463V39.6935Z" fill="url(#paint1_linear_3178_29130)"/>
<path d="M60.9342 21.1891C56.0809 24.034 54.6043 24.256 49.3276 27.4106L49.5858 26.8272C52.3429 23.8171 53.5458 22.5367 55.3684 19.8725C50.4996 20.1307 43.4521 20.7141 38.3975 21.8242L38.6711 21.2769C43.2507 19.0516 51.7388 16.8418 56.0809 16.2584C55.0225 14.7818 46.4105 10.1092 44.273 9.21086L44.5312 8.66357C51.0624 9.39156 59.695 12.4584 63.4743 14.7611C65.0594 14.2706 66.6858 14.2138 69.6442 13.9609C69.6442 13.9609 69.2053 15.7473 65.9939 17.9571C66.7942 20.0946 64.8787 31.9386 63.2885 35.0777C63.2162 30.1315 62.7774 23.8739 60.9342 21.1736V21.1891Z" fill="url(#paint2_linear_3178_29130)"/>
<path d="M25.4741 63.6242L25.7323 63.0769C23.1611 62.0701 20.5848 61.2905 18.4886 59.3182C19.1443 57.4905 19.8929 56.0707 21.1165 54.2636L21.3695 53.7163C19.1597 54.0467 17.1565 54.8677 15.2358 55.2291C13.7231 52.5804 13.1396 48.9508 12.3755 45.4813L12.1173 46.0285C11.6991 49.9731 11.5133 52.7973 12.0812 55.9364C10.491 56.3753 9.08663 56.4476 7.7907 56.9949L7.55322 57.5421C9.59779 58.8019 11.2603 59.7674 13.5785 60.8465C14.8176 63.5106 16.098 65.297 18.1787 67.3416L18.4317 66.7943C18.0652 65.2815 17.5747 64.0372 17.7554 62.3799C20.3318 63.1285 22.5364 63.5313 25.4741 63.619V63.6242Z" fill="url(#paint3_linear_3178_29130)"/>
<path d="M32.6304 24.1992C32.6304 24.1992 31.5927 26.0424 30.7718 28.469H30.5704C36.6111 29.29 42.3215 31.7372 43.7465 32.5737L43.4883 33.1209C37.2101 32.0264 33.9109 32.1348 31.5721 32.3517C29.2384 32.5737 28.7633 32.8628 28.7633 32.8628C27.4106 35.8006 26.6258 40.6022 26.316 42.3731L26.0631 42.9204C24.9117 40.1633 23.2492 34.6544 23.2492 34.6544C20.0946 36.353 12.8096 43.194 12.8096 43.194C16.8264 35.181 20.8949 31.5307 20.8949 31.5307C19.4905 30.1264 15.8402 29.4139 13.1606 29.2848L13.4136 28.7375C15.0916 28.247 18.5405 28.0457 20.8587 27.9373C23.5951 27.8443 25.2577 28.0095 25.2577 28.0095C27.7049 26.0579 31.3345 24.3593 32.6304 24.1786V24.1992Z" fill="url(#paint4_linear_3178_29130)"/>
<path d="M40.3337 58.6419C39.0739 60.356 37.9794 61.7087 36.5905 63.2783C34.5304 63.8462 32.047 63.5881 30.147 63.6603L29.894 64.2076C31.3345 64.9356 32.7389 65.3951 34.2362 65.7049C33.0125 66.8201 31.3913 67.6565 30.2399 68.4258L29.9869 68.9731C32.4291 68.3897 35.6611 67.3467 38.0671 65.9269C39.3269 65.9837 40.4989 65.9114 41.356 65.7256C41.356 65.7256 41.609 65.1576 41.609 65.1783C41.4437 64.631 40.9533 64.2851 40.8087 63.5158C43.0701 61.7655 44.6965 60.1753 46.5758 58.2753L46.8288 57.728C44.9701 59.0084 42.7035 60.7742 40.5351 61.8171C40.4421 60.7432 40.3698 59.8448 40.313 58.6419H40.3337Z" fill="url(#paint5_linear_3178_29130)"/>
<path d="M61.1921 20.6418C56.3543 23.4867 54.857 23.7242 49.601 26.884C52.6679 23.5641 53.7263 22.1391 55.6263 19.3666C50.7731 19.6195 43.71 20.2081 38.6709 21.3182C43.0492 18.9845 51.754 16.372 56.3388 15.7524C55.2804 14.2913 46.6633 9.61873 44.5103 8.72552C51.3358 9.25216 59.6587 11.8079 63.7117 14.2758C65.2967 13.7801 66.9592 13.744 69.9176 13.491C69.169 14.7869 69.1329 15.5356 66.2312 17.4511C67.0315 19.6041 65.116 31.4326 63.5258 34.5717C63.4742 29.6255 63.0353 23.3834 61.1921 20.6625V20.6418Z" fill="white"/>
<path d="M25.7325 63.0769C22.96 62.0391 20.9516 60.8516 18.7418 58.7864C19.3975 56.9639 20.1462 55.5389 21.3905 53.7111C19.1239 54.0571 17.4666 54.3152 15.5149 54.6766C13.9247 51.9041 13.2122 49.2193 12.3913 45.4967C11.9524 49.4568 11.7872 52.2655 12.3551 55.4253C10.5687 55.9209 9.30894 56.3546 7.82715 57.0155C9.89237 58.2753 11.5497 59.2408 13.8679 60.3198C15.1122 62.9633 16.3875 64.7704 18.4682 66.8149C17.9777 65.0647 17.8486 63.6965 18.0499 61.8481C20.6211 62.5967 22.8309 62.9995 25.7532 63.0872L25.7325 63.0666V63.0769Z" fill="white"/>
<path d="M32.9766 23.7242C32.1195 24.8549 31.0972 26.9562 30.8442 27.9217C38.0157 28.8872 43.7622 32.5736 43.7622 32.5736C37.4839 31.4584 34.1847 31.6081 31.8459 31.8043C29.5277 32.0212 29.0371 32.2948 29.0371 32.2948C27.3385 36.0019 26.3369 42.3679 26.3369 42.3679C25.201 39.6108 23.5437 34.1019 23.5437 34.1019C20.3839 35.8005 13.104 42.6415 13.104 42.6415C17.1002 34.6285 21.1687 30.9782 21.1687 30.9782C19.7643 29.5532 16.1141 28.8614 13.4344 28.7323C14.8181 28.1644 18.3961 27.4932 21.1326 27.3847C23.869 27.3125 25.5314 27.457 25.5314 27.457C27.9787 25.5209 31.7013 23.8997 32.9766 23.6983V23.719V23.7242Z" fill="white"/>
<path d="M40.5865 58.1101C39.3267 59.8242 38.2321 61.1769 36.8278 62.7465C34.4167 63.4228 32.4857 63.6758 30.1313 63.6758C31.5718 64.4245 32.9762 64.8633 34.4735 65.1886C32.9607 66.5568 31.7009 67.5223 30.2243 68.4568C32.6664 67.8734 35.8984 66.8304 38.3044 65.4106C39.5642 65.4674 40.7363 65.3745 41.5933 65.2092C41.3713 64.4813 41.2267 63.934 41.046 62.9995C43.3074 61.2492 44.9493 59.659 46.8286 57.759C44.8202 59.1633 43.1061 60.2063 40.7879 61.3008C40.6949 60.2217 40.6226 59.3285 40.571 58.1256L40.5865 58.1049V58.1101Z" fill="white"/>
<path d="M106.487 52.8386C109.1 52.8386 111.945 53.7679 111.945 56.1791C111.945 57.475 110.829 58.6625 109.152 59.2253C111.361 60.0255 112.657 61.306 112.657 62.984C112.657 65.9062 109.115 66.8924 105.775 66.8924H98.1284C98.3143 65.0647 98.3659 62.4367 98.3659 59.4989C98.3659 57.5628 98.3504 54.6456 98.1645 52.8179H106.508L106.487 52.8386ZM104.334 54.625C103.658 54.625 102.982 54.6818 102.636 54.7334C102.563 56.5611 102.527 57.4543 102.527 59.535C102.527 62.0701 102.527 63.0046 102.636 65.0079H104.665C107.055 65.0079 108.201 64.2954 108.201 62.8342C108.201 61.2079 106.709 60.4592 104.753 60.4592H103.586L104.391 58.3424H105.248C106.234 58.3424 107.566 57.8158 107.566 56.5353C107.566 55.1826 106.343 54.5992 104.298 54.5992L104.334 54.6147V54.625Z" fill="#231F20"/>
<path d="M128.132 52.8386C128.008 54.4236 127.93 58.1307 127.93 59.5195C127.93 60.7948 127.951 64.9769 128.132 66.913H124.812L119.483 59.0652C119.045 58.4456 118.735 57.8415 118.59 57.129V61.5796C118.59 63.2782 118.642 65.6842 118.792 66.9079H115.012C115.25 64.7704 115.265 60.7587 115.265 59.5144C115.265 58.1823 115.193 54.4236 115.084 52.8334H119.39L123.882 60.1339C124.12 60.5005 124.192 60.6812 124.301 60.991V52.8127H128.116L128.132 52.8334V52.8386Z" fill="#231F20"/>
<path d="M138.391 52.8386C141.437 52.8386 145.123 53.6957 145.123 56.9639C145.123 59.8294 142.516 61.2698 137.224 61.2698C136.909 61.2698 136.052 61.2698 135.814 61.2492C135.928 63.2008 135.892 65.5758 136.016 66.9079H131.4C131.581 64.9717 131.637 61.7965 131.637 59.5144C131.637 57.506 131.581 54.1655 131.4 52.8334H138.391V52.8386ZM135.85 54.8057C135.85 55.7196 135.799 56.6644 135.799 57.5783C135.799 58.2546 135.814 58.7813 135.85 59.2769C136.016 59.2976 136.749 59.2976 137.203 59.2976C138.68 59.2976 140.745 58.8794 140.745 56.9794C140.745 55.0794 138.628 54.7902 137.038 54.7902C136.837 54.7902 136.052 54.7902 135.835 54.8109H135.85V54.8057Z" fill="#231F20"/>
<path d="M159.668 52.8386C162.719 52.8386 166.405 53.6957 166.405 56.9639C166.405 59.8294 163.793 61.2698 158.501 61.2698C158.191 61.2698 157.334 61.2698 157.096 61.2492C157.205 63.2008 157.169 65.5758 157.298 66.9079H152.677C152.863 64.9717 152.914 61.7965 152.914 59.5144C152.914 57.506 152.863 54.1655 152.677 52.8334H159.668V52.8386ZM157.148 54.8057C157.148 55.7196 157.096 56.6644 157.096 57.5783C157.096 58.2546 157.112 58.7813 157.148 59.2769C157.313 59.2976 158.046 59.2976 158.501 59.2976C159.998 59.2976 162.043 58.8794 162.043 56.9794C162.043 55.0794 159.926 54.7902 158.335 54.7902C158.134 54.7902 157.349 54.7902 157.132 54.8109H157.148V54.8057Z" fill="#231F20"/>
<path d="M174.614 52.8386C175.146 54.5011 179.782 64.6258 180.856 66.9079H176.241C176.055 66.3606 175.693 65.612 175.017 63.8255C174.304 63.8049 173.576 63.8049 172.626 63.8049C171.676 63.8049 171 63.8256 170.251 63.8617C169.833 65.0131 169.467 65.9217 169.141 66.9079H165.125C165.909 65.1576 170.525 55.0794 171.367 52.8386H174.65H174.614ZM174.212 61.688C173.664 60.3353 172.921 58.6419 172.554 57.4544C172.172 58.6573 171.331 60.5005 170.912 61.688C171.439 61.7087 172.136 61.7448 172.606 61.7448C173.267 61.7448 173.592 61.7242 174.232 61.688H174.212Z" fill="#231F20"/>
<path d="M189.489 52.8386C192.571 52.8386 196.242 53.9332 196.242 57.2014C196.242 58.9516 194.946 60.1959 192.901 61.0169C193.32 61.7448 196.732 66.1799 197.409 66.9131H192.375C191.476 65.2144 189.783 62.2973 188.12 59.8139C190.129 60.0669 191.879 59.1014 191.879 57.1859C191.879 55.2704 189.747 54.7747 188.704 54.7747C188.229 54.7747 187.351 54.7747 187.041 54.7954C186.969 56.5095 186.933 58.5747 186.933 59.5247C186.933 60.7484 186.933 64.7807 187.171 66.9182H182.482C182.72 64.8375 182.772 62.3541 182.772 59.5247C182.772 57.1497 182.756 54.2842 182.534 52.8438H189.509H189.489V52.8386Z" fill="#231F20"/>
<path d="M203.888 52.8386C203.78 54.4236 203.708 58.1875 203.708 59.5351C203.708 60.7948 203.708 64.9563 203.888 66.8872H199.252C199.489 64.7549 199.51 60.738 199.51 59.5351C199.51 58.203 199.433 54.4236 199.324 52.8386H203.888Z" fill="#231F20"/>
<path d="M215.278 52.8386C217.886 52.8386 220.731 53.7679 220.731 56.1791C220.731 57.475 219.621 58.6625 217.943 59.2253C220.147 60.0255 221.443 61.306 221.443 62.984C221.443 65.9062 217.906 66.8924 214.566 66.8924H206.919C207.1 65.0647 207.157 62.4367 207.157 59.4989C207.157 57.5628 207.136 54.6456 206.956 52.8179H215.294L215.278 52.8386ZM213.141 54.625C212.465 54.625 211.788 54.6818 211.442 54.7334C211.37 56.5611 211.334 57.4543 211.334 59.535C211.334 62.0701 211.334 63.0046 211.442 65.0079H213.471C215.877 65.0079 217.008 64.2954 217.008 62.8342C217.008 61.2079 215.531 60.4592 213.559 60.4592H212.392L213.198 58.3424H214.055C215.041 58.3424 216.373 57.8158 216.373 56.5353C216.373 55.1826 215.149 54.5992 213.105 54.5992L213.141 54.6147V54.625Z" fill="#231F20"/>
<path d="M231.48 52.8386C232.012 54.5011 236.648 64.6258 237.722 66.9079H233.106C232.925 66.3606 232.559 65.612 231.883 63.8255C231.17 63.8049 230.442 63.8049 229.477 63.8049C228.511 63.8049 227.85 63.8256 227.102 63.8617C226.683 65.0131 226.317 65.9217 225.986 66.9079H221.975C222.759 65.1576 227.375 55.0794 228.217 52.8386H231.5H231.48ZM231.098 61.688C230.551 60.3353 229.786 58.6419 229.44 57.4544C229.053 58.6573 228.217 60.5005 227.793 61.688C228.325 61.7087 229.017 61.7448 229.492 61.7448C230.148 61.7448 230.478 61.7242 231.118 61.688H231.098Z" fill="#231F20"/>
<path d="M244.971 52.472C246.778 52.472 248.507 52.725 249.602 53.0761V56.6541C248.068 55.7609 246.556 55.0123 244.547 55.0123C242.962 55.0123 242.854 55.6318 242.854 56.1068C242.854 58.4818 250.862 58.4973 250.862 62.7672C250.862 65.5242 248.27 67.2745 243.985 67.2745C242.048 67.2745 240.226 66.8924 238.966 66.4329V63.0201C241.919 64.409 243.473 64.8427 244.842 64.8427C245.936 64.8427 246.736 64.3522 246.736 63.4022C246.736 60.7174 238.765 60.9756 238.765 56.4114C238.765 53.9125 241.264 52.472 244.971 52.472Z" fill="#231F20"/>
<path d="M273.605 60.0617C273.528 61.4505 273.44 64.3677 273.404 66.0302C271.886 66.8149 269.516 67.2538 267.213 67.2538C261.994 67.2538 258.658 63.9701 258.658 59.9171C258.658 55.6628 262.159 52.4514 267.874 52.4514C269.17 52.4514 271.137 52.6527 272.506 52.9986L271.488 55.7712C270.518 55.1671 268.912 54.6766 267.802 54.6766C264.513 54.6766 263.346 57.5989 263.346 59.9533C263.346 63.8927 265.463 65.1731 267.838 65.1731C268.127 65.1731 269.041 65.1524 269.315 65.0647C269.315 63.366 269.294 61.1976 269.15 60.0617H273.605Z" fill="#231F20"/>
<path d="M283.333 52.8386C286.415 52.8386 290.081 53.9332 290.081 57.2014C290.081 58.9516 288.785 60.1959 286.745 61.0169C287.164 61.7448 290.577 66.1799 291.253 66.9131H286.214C285.321 65.2144 283.643 62.2973 281.959 59.8139C283.968 60.0669 285.723 59.1014 285.723 57.1859C285.723 55.2704 283.586 54.7747 282.548 54.7747C282.073 54.7747 281.195 54.7747 280.885 54.7954C280.813 56.5095 280.777 58.5747 280.777 59.5247C280.777 60.7484 280.777 64.7807 281.015 66.9182H276.321C276.559 64.8375 276.616 62.3541 276.616 59.5247C276.616 57.1497 276.595 54.2842 276.378 52.8438H283.348H283.333V52.8386Z" fill="#231F20"/>
<path d="M299.663 67.29C295.285 67.29 292.001 64.2954 292.001 59.881C292.001 55.4666 295.285 52.472 299.663 52.472C304.041 52.472 307.309 55.446 307.309 59.881C307.309 64.3161 304.026 67.29 299.663 67.29ZM299.663 54.2791C297.639 54.2791 296.343 56.2669 296.343 59.881C296.343 63.4951 297.618 65.4313 299.663 65.4313C301.707 65.4313 302.931 63.4951 302.931 59.881C302.931 56.2669 301.671 54.2791 299.663 54.2791Z" fill="#231F20"/>
<path d="M313.826 52.8386C313.754 53.7679 313.717 54.7386 313.717 55.7402V62.4367C313.717 64.2644 314.28 65.3383 316.087 65.3383C317.657 65.3383 319.19 64.7187 319.19 61.8326V55.0277C319.19 53.5872 319.175 53.4375 319.066 52.8386H322.949C322.789 54.0622 322.789 56.3598 322.789 58.6212V62.6174C322.789 65.8495 320.522 67.2538 316.036 67.2538C311.967 67.2538 309.463 66.3967 309.463 62.4005V57.253C309.463 55.9571 309.411 53.8041 309.262 52.8179H313.826V52.8386Z" fill="#231F20"/>
<path d="M332.696 52.8386C335.742 52.8386 339.428 53.6957 339.428 56.9639C339.428 59.8294 336.821 61.2698 331.529 61.2698C331.219 61.2698 330.362 61.2698 330.125 61.2492C330.233 63.2008 330.197 65.5758 330.321 66.9079H325.705C325.891 64.9717 325.943 61.7965 325.943 59.5144C325.943 57.506 325.891 54.1655 325.705 52.8334H332.696V52.8386ZM330.161 54.8057C330.161 55.7196 330.104 56.6644 330.104 57.5783C330.104 58.2546 330.125 58.7813 330.161 59.2769C330.321 59.2976 331.054 59.2976 331.508 59.2976C332.99 59.2976 335.05 58.8794 335.05 56.9794C335.05 55.0794 332.933 54.7902 331.343 54.7902C331.147 54.7902 330.362 54.7902 330.14 54.8109H330.161V54.8057Z" fill="#231F20"/>
<path d="M105.45 11.7356C105.284 13.5633 105.248 15.3497 105.248 17.1929V31.5204C105.248 34.0967 106.56 36.2291 110.685 36.2291C114.227 36.2291 116.597 35.0984 116.597 29.2228V15.7886C116.597 12.9076 116.524 12.6288 116.395 11.7356H122.348C122.038 13.7234 122.038 18.3598 122.038 22.9033V30.8079C122.038 36.9571 118.424 39.5334 110.081 39.5334C102.527 39.5334 98.3659 37.5456 98.3659 29.4603V20.2443C98.3659 17.5957 98.2937 13.4394 98.0562 11.7563H105.413L105.45 11.7356Z" fill="#231F20"/>
<path d="M153.208 11.7356C151.767 13.2484 144.302 21.628 142.314 23.6158C143.863 25.7171 152.898 37.3598 154.54 38.981H145.943C144.157 36.0226 138.937 29.1815 136.454 26.0217C136.454 29.2899 136.49 35.7128 136.836 38.981H129.282C129.664 35.2016 129.721 27.1008 129.721 24.7258C129.721 22.0772 129.556 14.8696 129.339 11.7304H136.82C136.619 14.6114 136.474 20.8019 136.474 23.9204C141.343 19.0103 143.682 15.5614 146.511 11.7304H153.244H153.208V11.7356Z" fill="#231F20"/>
<path d="M171.568 11.7356C177.278 11.7356 184.104 13.3258 184.104 19.6402C184.104 23.1821 182.044 25.5519 177.955 26.8117C178.538 27.9785 185.111 37.9793 186.205 39.0016H178.063C176.277 35.6095 172.224 28.7633 169.27 24.3283C169.781 24.4367 170.509 24.5296 171.366 24.5296C173.741 24.5296 177.077 22.8155 177.077 19.6557C177.077 15.7318 172.332 15.0193 169.962 15.0193C168.759 15.0193 167.587 15.0916 167.004 15.1845C166.838 18.5766 166.766 22.8155 166.766 24.731C166.766 27.1421 166.766 35.2068 167.19 39.0223H159.595C159.977 35.2429 160.07 30.369 160.07 24.731C160.07 19.9861 160.034 14.2913 159.688 11.7717H171.568V11.7356Z" fill="#231F20"/>
<path d="M201.023 11.1883C204.379 11.1883 207.446 11.6994 209.398 12.2467V18.2307C207.028 16.9193 204.452 15.6595 200.13 15.6595C196.242 15.6595 196.005 17.1 196.005 18.1068C196.005 23.053 211.809 22.3973 211.809 31.0299C211.809 36.3581 207.064 39.5179 199.036 39.5179C195.329 39.5179 192.096 38.8622 189.964 38.1136V32.1657C194.838 34.4633 197.905 35.2326 200.677 35.2326C203.76 35.2326 205.35 34.3394 205.35 32.3103C205.35 26.982 189.546 27.7462 189.546 18.6799C189.546 13.8989 194.141 11.1625 201.023 11.1625V11.1986V11.1883Z" fill="#231F20"/>
<path d="M225.533 11.7356C225.295 14.8954 225.151 22.0462 225.151 24.731C225.151 27.106 225.187 35.2068 225.533 38.9861H217.979C218.361 35.2068 218.397 27.106 218.397 24.731C218.397 22.0823 218.232 14.8747 218.051 11.7356H225.533Z" fill="#231F20"/>
<path d="M246.665 11.7356C251.539 11.7356 256.666 13.522 256.666 18.05C256.666 20.7709 254.368 23.1976 250.899 24.0908C255.607 25.5313 258.055 28.0715 258.055 31.5204C258.055 37.05 251.523 39.0016 245.281 39.0016H232.632C232.978 35.4236 233.05 30.2761 233.05 24.7103C233.05 20.9671 233.014 15.3291 232.668 11.7511H246.649L246.665 11.7304V11.7356ZM242.467 14.7663C241.574 14.7663 240.552 14.8386 240.061 14.9315C239.896 18.5457 239.824 20.4973 239.824 24.6948C239.824 29.641 239.824 31.7011 240.025 35.7179C240.918 35.7541 242.359 35.7541 243.18 35.7541C248.436 35.7541 251.048 34.2413 251.048 31.1899C251.048 27.612 246.722 26.316 243.454 26.316H241.941L243.454 22.4644H244.383C246.613 22.4644 249.752 21.4628 249.752 18.7212C249.752 15.8351 247.796 14.7405 242.467 14.7405V14.7611V14.7663Z" fill="#231F20"/>
<path d="M276.976 11.7356C281.85 11.7356 286.983 13.522 286.983 18.05C286.983 20.7709 284.68 23.1976 281.215 24.0908C285.924 25.5313 288.366 28.0715 288.366 31.5204C288.366 37.05 281.835 39.0016 275.593 39.0016H262.943C263.289 35.4236 263.367 30.2761 263.367 24.7103C263.367 20.9671 263.331 15.3291 262.98 11.7511H276.961L276.976 11.7304V11.7356ZM272.784 14.7663C271.886 14.7663 270.863 14.8386 270.373 14.9315C270.208 18.5457 270.135 20.4973 270.135 24.6948C270.135 29.641 270.136 31.7011 270.337 35.7179C271.23 35.7541 272.67 35.7541 273.491 35.7541C278.747 35.7541 281.36 34.2413 281.36 31.1899C281.36 27.612 277.033 26.316 273.765 26.316H272.252L273.765 22.4644H274.7C276.904 22.4644 280.064 21.4628 280.064 18.7212C280.064 15.8351 278.112 14.7405 272.784 14.7405V14.7611V14.7663Z" fill="#231F20"/>
<path d="M307.619 11.7356C308.678 14.5443 317.62 34.4736 319.721 38.9861H312.204C311.781 37.747 310.887 35.4804 309.7 32.5633C308.151 32.5272 306.545 32.491 304.335 32.491C302.275 32.491 300.721 32.5272 298.935 32.5633C298.078 34.8609 297.381 36.9622 296.761 38.9861H290.23C291.779 35.5889 300.943 15.7524 302.363 11.7356H307.619ZM308.28 28.9647C306.489 24.6742 304.94 21.0239 304.392 19.728C303.148 22.3766 301.78 25.4951 300.339 28.9647C301.506 29.0008 303.096 29.037 304.392 29.037C305.688 29.037 306.964 29.0008 308.28 28.9647Z" fill="#231F20"/>
<path d="M347.808 11.7356C347.534 14.8541 347.385 22.0462 347.385 24.6948C347.385 27.106 347.426 35.2068 347.86 38.9861H342.769L331.09 21.8139C330.089 20.3011 329.815 19.5163 329.613 18.8193C329.613 22.9807 329.577 25.0408 329.577 28.7478C329.577 32.0883 329.65 36.8899 329.923 38.9861H323.573C323.955 35.2068 324.006 27.106 324.006 24.6948C324.006 22.0462 323.846 14.8386 323.66 11.7356H330.817L339.542 24.5503C341.401 27.2712 341.804 27.8546 342.113 28.8769H342.149C341.912 25.4848 341.84 21.9946 341.674 18.6024L341.401 11.7563H347.824L347.808 11.7356Z" fill="#231F20"/>
<path d="M378.668 11.7356C377.227 13.2484 369.762 21.628 367.774 23.6158C369.323 25.7171 378.358 37.3598 380 38.981H371.404C369.617 36.0226 364.397 29.1815 361.898 26.0217C361.898 29.2899 361.934 35.7128 362.28 38.981H354.722C355.109 35.2016 355.145 27.1008 355.145 24.7258C355.145 22.0772 354.995 14.8696 354.758 11.7304H362.244C362.043 14.6114 361.898 20.8019 361.898 23.9204C366.767 19.0103 369.106 15.5614 371.935 11.7304H378.668V11.7356Z" fill="#231F20"/>
</g>
<defs>
<linearGradient id="paint0_linear_3178_29130" x1="39.234" y1="-1.93614" x2="39.234" y2="80.9049" gradientUnits="userSpaceOnUse">
<stop stop-color="#008153"/>
<stop offset="0.6" stop-color="#80CBAE"/>
<stop offset="1" stop-color="#00A76D"/>
</linearGradient>
<linearGradient id="paint1_linear_3178_29130" x1="39.1202" y1="-19.4905" x2="39.1202" y2="73.6044" gradientUnits="userSpaceOnUse">
<stop stop-color="#00A76D"/>
<stop offset="0.3" stop-color="#80CBAE"/>
<stop offset="0.55" stop-color="#00A76D"/>
<stop offset="0.84" stop-color="#008153"/>
<stop offset="0.89" stop-color="#00885C"/>
<stop offset="0.97" stop-color="#00A172"/>
<stop offset="1" stop-color="#00AD7D"/>
</linearGradient>
<linearGradient id="paint2_linear_3178_29130" x1="54.0208" y1="68.4568" x2="54.0208" y2="8.21439" gradientUnits="userSpaceOnUse">
<stop stop-color="#00B387"/>
<stop offset="1" stop-color="#00A76D"/>
</linearGradient>
<linearGradient id="paint3_linear_3178_29130" x1="16.6402" y1="68.4568" x2="16.6402" y2="8.19377" gradientUnits="userSpaceOnUse">
<stop stop-color="#00B387"/>
<stop offset="1" stop-color="#00A76D"/>
</linearGradient>
<linearGradient id="paint4_linear_3178_29130" x1="28.278" y1="68.4413" x2="28.278" y2="8.22992" gradientUnits="userSpaceOnUse">
<stop stop-color="#00B387"/>
<stop offset="1" stop-color="#00A76D"/>
</linearGradient>
<linearGradient id="paint5_linear_3178_29130" x1="38.3614" y1="68.4568" x2="38.3614" y2="8.21442" gradientUnits="userSpaceOnUse">
<stop stop-color="#00B387"/>
<stop offset="1" stop-color="#00A76D"/>
</linearGradient>
</defs>
</svg>
